<svg width="54" height="67" viewBox="0 0 54 67" fill="none" xmlns="http://www.w3.org/2000/svg">
<g clip-path="url(#clip0_19_447)">
<path fill-rule="evenodd" clip-rule="evenodd" d="M54 63.3497C50.7875 63.3497 49.2578 61.7979 47.5751 60.7025C45.7394 59.6072 44.3626 58.3292 42.8329 57.0513C42.5269 57.1426 42.221 57.1426 42.068 57.2339C40.3853 59.3333 37.4788 60.8851 35.0312 62.5281C33.9603 63.2584 32.4306 63.8061 31.0538 64.3537C26.1586 66.1794 20.9575 67.4573 15.1445 66.5445C10.7082 65.8142 6.73088 64.7189 3.97734 61.9804C0.611897 58.9682 -0.30595 56.1385 -9.574e-07 52.7611C0.152974 51.5745 2.75354 44.5458 5.50708 41.99C7.49575 39.5254 9.79037 37.1521 12.085 34.7788C14.2266 32.4968 16.6742 30.3061 18.9688 28.1153C19.7337 27.3851 19.8867 26.6548 19.7337 25.742C19.2748 23.0949 18.9688 20.539 18.8159 17.8919C18.6629 15.1535 19.2748 12.3238 20.6516 9.76792C21.8754 7.30334 23.711 4.83876 26.6176 3.01315C29.6771 1.00497 33.6544 -0.546797 38.8555 0.274729C41.915 0.731132 43.7507 1.91778 44.6686 3.56083C46.3513 6.39053 46.1983 9.31151 45.2805 12.2325C43.9037 16.614 40.9972 20.6303 36.5609 24.2815C33.9603 26.4723 31.2068 28.7543 28.6062 30.945C28.1473 31.3101 27.9943 31.9491 28.1473 32.4055C29.0652 34.3224 30.136 36.3306 31.3598 38.1562C33.6544 41.6249 40.8442 50.6616 42.068 51.9396C45.4334 48.3796 47.2691 44.5458 48.9518 40.6208C49.8697 41.4423 50.0227 41.4423 49.7167 41.99C48.4929 45.1848 44.2096 54.5867 45.4334 55.5908C46.5042 56.4123 47.5751 58.2379 48.6459 59.1507C49.7167 59.9723 50.9405 60.7938 52.1643 61.524C53.3881 61.9804 54 62.5281 54 63.3497ZM23.711 34.6875C23.2521 35.0527 22.9462 35.3265 22.6402 35.6916C19.5807 38.7039 16.3683 41.6249 13.3088 44.6371C11.932 46.0063 7.1898 53.8565 7.03683 56.5949C6.88385 59.5159 9.79037 61.6153 13.3088 62.9845C17.1331 64.445 21.8754 64.445 26.0057 62.9845C30.9009 61.3415 34.8782 58.9682 38.2436 56.2298C40.0793 54.7693 39.9263 54.4954 38.3966 52.8524C36.5609 50.9355 34.4193 49.1099 33.0425 47.1017C30.136 43.2679 27.5354 39.4341 24.9348 35.6003C24.4759 35.3265 24.17 35.1439 23.711 34.6875ZM24.7819 22.6385C28.4533 19.9913 30.4419 17.2529 32.8895 14.6058C34.5722 12.6889 35.6431 10.6807 36.102 8.48999C36.5609 6.93822 36.5609 5.47773 36.255 3.92596C34.1133 3.65211 32.8895 4.1998 31.6657 4.93004C29.2181 6.48181 27.8414 8.39871 26.6176 10.3156C24.6289 13.5104 24.4759 16.9791 24.4759 20.3565C24.4759 21.0867 24.6289 21.6344 24.7819 22.6385Z" fill="#A82021"/>
</g>
<defs>
<clipPath id="clip0_19_447">
<rect width="54" height="67" fill="white"/>
</clipPath>
</defs>
</svg>
