<svg width="40" height="40" viewBox="0 0 40 40" fill="none" xmlns="http://www.w3.org/2000/svg">
<g clip-path="url(#clip0_17_189)">
<path d="M31.7578 34.1516C31.7068 34.1516 31.6553 34.1461 31.6046 34.1361C31.5552 34.1257 31.506 34.111 31.4584 34.0915C31.4114 34.072 31.3663 34.0479 31.3242 34.0195C31.2811 33.9908 31.2411 33.9588 31.2051 33.9218C31.1694 33.8861 31.1365 33.8461 31.1084 33.804C31.0794 33.761 31.0559 33.7155 31.0364 33.6688C31.0168 33.6218 31.0013 33.5727 30.9912 33.5227C30.9811 33.472 30.9766 33.421 30.9766 33.3695C30.9766 33.3188 30.9811 33.2672 30.9912 33.2172C31.0013 33.1671 31.0162 33.118 31.0358 33.071C31.0553 33.0234 31.0794 32.9782 31.1075 32.9361C31.1365 32.8931 31.1694 32.8531 31.2051 32.8171C31.2411 32.7814 31.2811 32.7484 31.3242 32.7204C31.3663 32.6923 31.4114 32.6679 31.4584 32.6483C31.506 32.6288 31.5552 32.6142 31.6046 32.6041C31.7062 32.5836 31.8091 32.5836 31.9101 32.6041C31.9601 32.6142 32.0093 32.6288 32.056 32.6483C32.1036 32.6679 32.149 32.6923 32.1912 32.7204C32.2342 32.7484 32.2739 32.7814 32.3099 32.8171C32.3459 32.8531 32.3788 32.8931 32.4069 32.9361C32.435 32.9782 32.4591 33.0234 32.4786 33.071C32.4982 33.118 32.5131 33.1671 32.5232 33.2172C32.5333 33.2672 32.5388 33.3188 32.5388 33.3695C32.5388 33.421 32.5333 33.472 32.5232 33.5227C32.5131 33.5727 32.4982 33.6218 32.4786 33.6688C32.4591 33.7155 32.435 33.761 32.4069 33.804C32.3788 33.8461 32.3459 33.8861 32.3099 33.9218C32.2739 33.9588 32.2342 33.9908 32.1912 34.0195C32.149 34.0476 32.1036 34.072 32.056 34.0915C32.0093 34.111 31.9601 34.126 31.9101 34.1361C31.86 34.1461 31.8085 34.1516 31.7578 34.1516Z" fill="#CAA356"/>
<path d="M20.8618 24.9955H18.6923C18.4582 24.9955 18.2363 24.8905 18.088 24.7092C17.9397 24.5283 17.8802 24.2899 17.9263 24.0604L18.6566 20.4194H15.3265L14.2419 21.323C14.1015 21.4402 13.9245 21.504 13.742 21.504H11.5722C11.3131 21.504 11.0708 21.3755 10.9255 21.1609C10.78 20.9461 10.7507 20.6736 10.8468 20.4328L11.8157 18.0109L10.8468 15.5891C10.7507 15.3483 10.78 15.0757 10.9255 14.8609C11.0708 14.6464 11.3131 14.5176 11.5722 14.5176H13.742C13.9245 14.5176 14.1015 14.5817 14.2419 14.6989L15.3265 15.6025H18.6566L17.9263 11.9614C17.8802 11.7316 17.9397 11.4936 18.088 11.3126C18.2363 11.1313 18.4582 11.0264 18.6923 11.0264H20.8618C21.1327 11.0264 21.3845 11.1667 21.5267 11.3975L24.1213 15.6025H26.8282C28.1564 15.6025 29.2367 16.6828 29.2367 18.0109C29.2367 19.3391 28.1564 20.4194 26.8282 20.4194H24.1213L21.5267 24.6244C21.3845 24.8551 21.1327 24.9955 20.8618 24.9955ZM19.6459 23.433H20.426L23.0206 19.228C23.1628 18.9973 23.4145 18.8569 23.6855 18.8569H26.8282C27.2949 18.8569 27.6742 18.4775 27.6742 18.0109C27.6742 17.5443 27.2949 17.165 26.8282 17.165H23.6855C23.4145 17.165 23.1631 17.0246 23.0206 16.7939L20.426 12.5889H19.6459L20.3762 16.2299C20.4223 16.4597 20.3628 16.6978 20.2145 16.879C20.0662 17.06 19.8443 17.165 19.6102 17.165H15.0439C14.8611 17.165 14.6841 17.1009 14.5437 16.984L13.4591 16.0801H12.7264L13.3825 17.7207C13.457 17.9072 13.457 18.115 13.3825 18.3011L12.7264 19.9418H13.4591L14.5437 19.0381C14.6841 18.921 14.8611 18.8569 15.0439 18.8569H19.6102C19.8443 18.8569 20.0662 18.9622 20.2145 19.1431C20.3628 19.3241 20.4223 19.5624 20.3762 19.7919L19.6459 23.433Z" fill="#CAA356"/>
<path d="M28.3117 33.7225H11.7129C11.2817 33.7225 10.9316 33.3727 10.9316 32.9412V28.1368C10.9316 27.7053 11.2817 27.3556 11.7129 27.3556H28.3117C28.7432 27.3556 29.093 27.7053 29.093 28.1368V32.9412C29.093 33.3727 28.7432 33.7225 28.3117 33.7225ZM12.4941 32.16H27.5305V28.9181H12.4941V32.16Z" fill="#CAA356"/>
<path d="M35.6671 1.56342H32.54V0.78125C32.54 0.349731 32.1899 0 31.7587 0H6.57745C4.88922 0 3.51562 1.37329 3.51562 3.06152V36.9382C3.51562 38.6264 4.88892 40 6.57715 40H35.6671C36.0986 40 36.4484 39.6503 36.4484 39.2188V2.34467C36.4484 1.91315 36.0986 1.56342 35.6671 1.56342ZM30.9772 1.5625V10.9662L28.7756 9.92828C28.5648 9.8288 28.3206 9.8288 28.1097 9.92798L25.9021 10.9671V1.5625H30.9772ZM34.8859 38.4375H9.04877V6.74316C9.04877 6.31165 8.69904 5.96191 8.26752 5.96191C7.836 5.96191 7.48627 6.31165 7.48627 6.74316V38.4375H6.57745C5.75073 38.4375 5.07813 37.7649 5.07813 36.9382V3.06152C5.07813 2.23511 5.75073 1.5625 6.57745 1.5625H24.3396V12.1985C24.3396 12.4658 24.4766 12.7145 24.7025 12.858C24.8294 12.9385 24.975 12.9797 25.1212 12.9797C25.2344 12.9797 25.3479 12.955 25.4538 12.9053L28.4421 11.4984L30.9772 12.6938V29.5807C30.9772 30.0122 31.3272 30.3619 31.7584 30.3619C32.1899 30.3619 32.5397 30.0122 32.5397 29.5807V3.12592H34.8859V38.4375Z" fill="#CAA356"/>
</g>
<defs>
<clipPath id="clip0_17_189">
<rect width="40" height="40" fill="white"/>
</clipPath>
</defs>
</svg>
