<svg width="17" height="15" viewBox="0 0 17 15" fill="none" xmlns="http://www.w3.org/2000/svg">
<path d="M15.3191 5.3035C15.6347 5.29487 15.9399 5.28453 16.2625 5.2759C15.737 6.24684 15.2185 7.2057 14.6912 8.17836C14.1085 7.24019 13.531 6.3141 12.9483 5.3742C13.2535 5.36386 13.5431 5.35523 13.8466 5.34661C13.8345 5.29832 13.8258 5.25693 13.8137 5.21727C13.1963 3.14433 11.8591 1.74052 9.80395 1.05069C7.58403 0.305676 5.12131 0.895481 3.41475 2.53555C2.53892 3.37542 1.94752 4.38257 1.63015 5.55011C1.62321 5.57425 1.61627 5.5984 1.59546 5.62082C1.60066 5.58805 1.60413 5.55356 1.61107 5.52079C2.11228 2.92876 4.08766 0.847193 6.67178 0.219448C8.6593 -0.261709 10.5324 0.0487147 12.2511 1.14727C13.772 2.11821 14.771 3.49614 15.293 5.21554C15.3017 5.24314 15.3086 5.269 15.3191 5.3035Z" fill="#18599C"/>
<path d="M0 8.72333C0.511622 7.77827 1.03018 6.8194 1.55741 5.84674C2.14014 6.78319 2.71593 7.70756 3.30039 8.64918C2.99515 8.65952 2.70379 8.66815 2.38988 8.68022C2.47139 8.92683 2.53383 9.1631 2.62748 9.38729C3.4981 11.4792 5.05205 12.7657 7.28584 13.1814C9.90638 13.6694 12.5651 12.4225 13.9213 10.1289C14.2404 9.58735 14.4798 9.01479 14.6393 8.40774C14.6462 8.38359 14.6549 8.35945 14.6653 8.3353C14.5977 8.78197 14.4798 9.21656 14.3185 9.64081C13.4634 11.8638 11.4586 13.5039 9.09299 13.9091C6.47418 14.3575 3.87271 13.3573 2.22339 11.2671C1.64239 10.5307 1.22269 9.71151 0.960808 8.81301C0.938262 8.7354 0.907044 8.71988 0.830735 8.72161C0.554979 8.72851 0.280958 8.72333 0 8.72333Z" fill="#18599C"/>
<path d="M7.19389 11.3584C7.43496 10.3271 7.6743 9.29749 7.9171 8.25757C7.24072 8.25757 6.57821 8.25757 5.90356 8.25757C5.9157 8.21963 5.92438 8.19031 5.93478 8.16272C6.51751 6.7089 7.0985 5.25509 7.68123 3.80127C7.69858 3.75815 7.71245 3.73056 7.76968 3.73056C8.44259 3.73401 9.11551 3.73228 9.79015 3.73228C9.79536 3.73228 9.80056 3.73401 9.81964 3.73918C9.40167 4.78083 8.98543 5.82247 8.564 6.87791C9.16233 6.87791 9.74853 6.87791 10.3555 6.87791C9.29934 8.38519 8.25702 9.8735 7.2147 11.3618C7.20603 11.3601 7.20083 11.3601 7.19389 11.3584Z" fill="#18599C"/>
</svg>
