<svg width="288" height="187" viewBox="0 0 288 187" fill="none" xmlns="http://www.w3.org/2000/svg">
<g clip-path="url(#clip0_168_50)">
<path d="M38.8527 187.002C46.3969 184.536 54.5069 181.454 63.1828 177.96C61.4853 172.618 60.3537 167.275 59.5993 162.343C49.7918 166.042 39.9844 169.33 29.9883 172.001L38.8527 187.002Z" fill="#2B3760"/>
<path d="M129.383 128.437C125.045 131.109 120.519 133.575 116.181 136.041C116.558 137.89 117.124 139.945 117.878 141.794C118.633 144.055 119.198 146.109 119.576 147.548C119.764 147.548 119.764 147.548 119.953 147.342L120.707 147.137L120.519 147.959C120.33 148.37 120.33 148.986 120.141 149.397C120.519 149.397 120.896 149.397 121.273 149.397C125.234 147.137 129.194 144.877 133.155 142.411C181.627 112.615 236.134 67.8184 287.811 0.418121C288 0.418121 219.913 75.0105 129.383 128.437Z" fill="#2B3760"/>
<path d="M121.462 112.615C120.896 113.231 120.142 114.053 119.576 114.669C117.312 117.546 115.615 120.834 115.238 125.149C115.238 125.56 115.238 126.177 115.238 126.588C119.199 124.533 123.159 122.478 127.309 120.423C168.047 98.6414 212.935 66.9961 257.446 21.1722C257.446 21.1722 200.299 70.9004 123.914 108.505C121.65 109.532 119.387 110.765 117.124 111.793C117.501 111.793 117.878 111.998 118.255 111.998C119.387 112.409 120.519 112.409 121.462 112.615Z" fill="#2C457B"/>
<path d="M23.1984 160.288C34.1375 157.823 46.2082 154.329 59.222 150.014C59.222 149.192 59.4106 148.576 59.4106 147.754C59.5992 146.315 59.7878 144.877 60.165 143.438C57.5245 142 55.0727 140.972 52.998 140.15L49.4145 139.123H49.2259L47.9057 138.918C36.9666 141.794 26.0275 144.26 15.0884 146.315L23.1984 160.288Z" fill="#2C457B"/>
<path d="M7.5442 133.163C19.9921 131.931 33.9489 129.876 49.4145 126.382C49.6031 125.766 49.7917 125.149 49.7917 124.533C48.0943 123.711 46.3969 122.684 44.888 121.862C42.2475 120.218 39.6071 118.368 36.9666 116.519C24.7073 118.574 12.4479 120.012 0 120.629L7.5442 133.163Z" fill="#35579C"/>
<path d="M107.128 108.3C112.031 106.45 116.935 104.19 122.027 102.135C154.09 87.9562 188.794 67.8183 224.251 39.2554C224.251 39.2554 179.741 69.0513 119.387 92.6824C112.22 95.5593 104.676 98.2306 97.1316 100.696C99.5835 103.162 102.413 105.423 105.43 107.478C105.996 107.683 106.562 108.094 107.128 108.3Z" fill="#35579C"/>
</g>
<defs>
<clipPath id="clip0_168_50">
<rect width="288" height="186.584" fill="white" transform="translate(0 0.418121)"/>
</clipPath>
</defs>
</svg>
