<svg width="35" height="43" viewBox="0 0 35 43" fill="none" xmlns="http://www.w3.org/2000/svg">
<path d="M0 24.19C0.182397 23.9878 0.344528 23.7451 0.567458 23.6035C2.45223 22.4304 4.337 21.2775 6.22177 20.1044C6.97163 19.6392 7.43775 19.8617 7.51882 20.7719C7.68095 22.5113 7.74175 24.2709 8.00521 25.9901C8.53214 29.469 10.5993 31.7747 13.7811 33.1703C14.1257 33.3321 14.5107 33.4332 14.916 33.5748C14.916 27.3452 14.916 21.1764 14.916 14.9468C14.7742 14.9468 14.6323 14.9468 14.4702 14.9468C13.5177 14.9468 12.5651 14.9468 11.6126 14.9468C10.9641 14.9468 10.7209 14.7041 10.7209 14.0569C10.7209 13.1872 10.7209 12.3175 10.7209 11.4478C10.7209 10.841 10.9844 10.5983 11.6126 10.5781C12.707 10.5781 13.8014 10.5781 14.9566 10.5781C14.9566 9.95108 14.9768 9.36454 14.9363 8.75776C14.9363 8.65663 14.7742 8.53528 14.6728 8.45438C12.9907 7.15993 12.3625 4.97554 13.1123 2.99342C13.8419 1.09219 15.7875 -0.141579 17.8749 0.0202272C19.78 0.161808 21.5026 1.53716 22.0498 3.35748C22.597 5.23848 21.9485 7.30151 20.388 8.45438C20.165 8.61618 20.0637 8.79821 20.0637 9.08138C20.084 9.56679 20.0637 10.0522 20.0637 10.5781C21.0365 10.5781 21.9485 10.5781 22.8807 10.5781C24.2588 10.5781 24.3196 10.6388 24.3196 11.9939C24.3196 12.6816 24.3196 13.3692 24.3196 14.0569C24.3196 14.7041 24.0562 14.9468 23.4279 14.9468C22.3335 14.9468 21.2391 14.9468 20.1245 14.9468C20.1245 21.1764 20.1245 27.3655 20.1245 33.6759C20.8338 33.3928 21.5026 33.1703 22.1309 32.8669C24.8263 31.5522 26.6705 29.5094 27.2988 26.5362C27.4812 25.6261 27.4812 24.6754 27.5014 23.7451C27.542 22.7338 27.5217 21.7225 27.542 20.7314C27.542 19.9628 28.0689 19.6797 28.7174 20.0842C30.663 21.2775 32.6086 22.4708 34.5541 23.6844C35.2027 24.0889 35.1621 24.6754 34.4933 25.0193C33.7638 25.3833 33.0544 25.7676 32.3046 26.1115C32.0411 26.2328 31.9398 26.3946 31.9398 26.6778C31.9803 28.2959 31.8385 29.8937 31.3115 31.4309C30.5009 33.777 29.0012 35.5974 26.9745 36.9929C25.2316 38.2065 23.3063 38.9548 21.2594 39.4807C21.0567 39.5414 20.8541 39.6627 20.7122 39.8043C19.8813 40.6943 19.0706 41.6044 18.26 42.5146C18.0979 42.6966 17.8749 42.8382 17.6925 43C17.5709 43 17.4696 43 17.348 43C17.1656 42.8382 16.9427 42.6966 16.7805 42.5146C15.9496 41.6246 15.1592 40.6943 14.3283 39.8043C14.1865 39.6425 13.9433 39.5212 13.7406 39.4605C11.714 38.9144 9.76839 38.166 8.04574 36.9525C5.99884 35.5165 4.5194 33.6759 3.70874 31.2893C3.20208 29.7926 3.08049 28.2554 3.10075 26.698C3.10075 26.3542 3.01969 26.1722 2.69543 26.0306C2.00637 25.7272 1.33758 25.3833 0.66879 25.0193C0.425594 24.8777 0.22293 24.6148 0 24.4125C0 24.3518 0 24.2709 0 24.19ZM16.3144 14.9468C16.3144 15.1896 16.3144 15.3716 16.3144 15.5536C16.3144 21.4393 16.3144 27.3452 16.3144 33.2309C16.3144 33.6355 16.2739 33.9793 16.8616 34.0198C17.2467 34.04 17.4291 34.404 17.348 34.7681C17.2669 35.1322 17.0237 35.3142 16.6589 35.294C16.4158 35.2738 16.1523 35.2333 15.9091 35.1928C13.2137 34.6872 10.883 33.4939 9.05906 31.4106C7.39722 29.5094 6.6271 27.2643 6.5055 24.7766C6.4447 23.7855 6.34337 22.7742 6.24204 21.7225C4.84366 22.5922 3.50608 23.4012 2.12797 24.2709C2.67516 24.5541 3.14129 24.817 3.64794 25.0193C4.2762 25.262 4.53966 25.6665 4.47887 26.334C4.43833 26.961 4.4586 27.588 4.49913 28.215C4.68153 30.8645 5.69485 33.1298 7.70122 34.9299C9.36306 36.4266 11.3086 37.3975 13.4569 37.9436C14.4296 38.1863 15.1998 38.5908 15.8078 39.3796C16.3144 40.047 16.9427 40.6538 17.5304 41.301C18.3411 40.4111 19.0909 39.5414 19.8813 38.7121C20.1042 38.4897 20.4082 38.2874 20.7122 38.2065C22.5565 37.7211 24.3196 37.0738 25.9207 36.0221C28.0081 34.6468 29.4876 32.8264 30.1969 30.3993C30.5211 29.2869 30.6022 28.1543 30.6022 27.0014C30.6022 25.1406 30.4198 25.5249 32.0411 24.6957C32.3248 24.5541 32.6086 24.4125 32.9328 24.2305C31.575 23.4012 30.2779 22.5922 28.9201 21.7629C28.9201 21.945 28.8998 22.0663 28.8998 22.1877C28.8796 23.2394 28.8593 24.2912 28.839 25.3429C28.7985 27.1025 28.231 28.7004 27.2785 30.1566C25.4545 32.9478 22.7591 34.4243 19.5976 35.1726C19.172 35.2738 18.8072 35.0108 18.7464 34.5861C18.7261 34.4849 18.7464 34.3636 18.7464 34.2422C18.7464 27.6891 18.7464 21.1359 18.7464 14.5828C18.7464 14.4614 18.7464 14.3603 18.7666 14.2389C18.8274 13.8142 19.0504 13.5917 19.4962 13.5715C19.8002 13.5513 20.084 13.5715 20.388 13.5715C21.2391 13.5715 22.0903 13.5715 22.9821 13.5715C22.9821 13.0052 22.9821 12.4793 22.9821 11.9332C21.8674 11.9332 20.773 11.9332 19.6786 11.9332C19.0098 11.9332 18.7869 11.6905 18.7666 11.023C18.7666 10.2747 18.7869 9.50612 18.7464 8.75776C18.7059 8.17122 18.9288 7.80715 19.4354 7.48354C20.7122 6.69473 21.2189 5.13735 20.7528 3.66087C20.3272 2.30574 18.9288 1.31468 17.5304 1.35513C15.9091 1.39558 14.4904 2.62935 14.2878 4.12606C14.0649 5.90593 15.0174 7.38241 16.6589 7.88805C17.2872 8.07009 17.5304 8.33302 17.4493 8.73754C17.3683 9.16228 17.0643 9.32408 16.436 9.26341C16.4158 9.26341 16.4158 9.26341 16.355 9.28363C16.355 9.78928 16.355 10.3354 16.355 10.8612C16.355 11.7714 16.1928 11.9534 15.2808 11.9534C14.2473 11.9534 13.2137 11.9534 12.1598 11.9534C12.1598 12.5198 12.1598 13.0456 12.1598 13.5917C12.3219 13.5917 12.4638 13.5917 12.6057 13.5917C14.0851 13.5917 15.5443 13.5917 17.0237 13.5917C17.4696 13.5917 17.7331 13.8547 17.7533 14.2389C17.7533 14.6232 17.4899 14.9064 17.0643 14.9266C16.7805 14.9468 16.5779 14.9468 16.3144 14.9468Z" fill="#578672"/>
<path d="M17.5102 6.06773C16.7401 6.06773 16.1118 5.46096 16.1118 4.69238C16.1118 3.94402 16.7401 3.2968 17.4899 3.2968C18.2398 3.2968 18.8883 3.9238 18.8883 4.67215C18.9086 5.44073 18.2803 6.06773 17.5102 6.06773Z" fill="#578672"/>
</svg>
