<svg width="56" height="56" viewBox="0 0 56 56" fill="none" xmlns="http://www.w3.org/2000/svg">
<circle cx="28" cy="28" r="28" fill="#949494" fill-opacity="0.05"/>
<path d="M41.6517 36.2663C42.2037 36.2663 42.6517 35.8183 42.6517 35.2663V26.5463C42.6503 25.4797 41.785 24.6143 40.7183 24.613H38.4663V17.7997C38.461 12.021 33.7783 7.33834 27.9997 7.33301C22.221 7.33834 17.5383 12.021 17.533 17.7997V24.6063H15.281C14.2143 24.6077 13.349 25.473 13.3477 26.5397V41.7917C13.3503 44.4823 15.5317 46.6637 18.2223 46.6663H37.777C40.4677 46.6637 42.649 44.4823 42.6517 41.7917C42.6517 41.2397 42.2037 40.7917 41.6517 40.7917C41.0997 40.7917 40.6517 41.2397 40.6517 41.7917C40.649 43.3783 39.3637 44.6637 37.777 44.6663H18.2223C16.6357 44.6637 15.3503 43.3783 15.3477 41.7917L15.281 26.6063H18.533C19.085 26.6063 19.533 26.1583 19.533 25.6063V17.7997C19.9223 6.59834 36.077 6.59701 36.4663 17.7997V24.6063H25.333C24.781 24.6063 24.333 25.0543 24.333 25.6063C24.333 26.1583 24.781 26.6063 25.333 26.6063C27.889 26.593 38.3237 26.5557 40.6517 26.5397V35.2663C40.6517 35.8183 41.0997 36.2663 41.6517 36.2663Z" fill="#D14A37"/>
<path d="M25.7949 35.6349C25.8443 38.5336 30.1563 38.5336 30.2056 35.6349C30.1563 32.7363 25.8443 32.7363 25.7949 35.6349Z" fill="#D14A37"/>
</svg>
