<svg width="289" height="273" viewBox="0 0 289 273" fill="none" xmlns="http://www.w3.org/2000/svg">
<path d="M17.8165 248.629C10.4465 252.795 2.75617 256.64 -4.61377 260.485C-3.9729 263.369 -3.0116 266.574 -1.72987 269.457C-0.448145 272.982 0.513157 276.186 1.15402 278.43C1.47445 278.43 1.47444 278.43 1.79488 278.109L3.07661 277.789L2.75618 279.07C2.43575 279.711 2.43575 280.673 2.11532 281.313C2.75618 281.313 3.39705 281.313 4.03792 281.313C10.767 277.789 17.4961 274.264 24.2251 270.419C106.576 223.956 199.181 154.102 286.98 49C287.3 49 171.624 165.317 17.8165 248.629Z" fill="#2B3760"/>
<path d="M4.35846 223.956C3.39716 224.917 2.11543 226.199 1.15413 227.16C-2.69106 231.646 -5.57496 236.773 -6.21582 243.502C-6.21582 244.143 -6.21582 245.104 -6.21582 245.745C0.513258 242.541 7.24234 239.336 14.2919 236.132C83.5052 202.166 159.768 152.82 235.39 81.3633C235.39 81.3633 138.299 158.908 8.52406 217.547C4.67887 219.149 0.833691 221.072 -3.0115 222.674C-2.37063 222.674 -1.72976 222.994 -1.0889 222.994C0.833698 223.635 2.75629 223.635 4.35846 223.956Z" fill="#2C457B"/>
<path d="M-19.9945 217.227C-11.6633 214.343 -3.33203 210.818 5.31964 207.614C59.7931 185.504 118.753 154.102 178.994 109.562C178.994 109.562 103.372 156.024 0.833593 192.874C-11.3428 197.36 -24.1601 201.526 -36.9774 205.371C-32.8118 209.216 -28.0053 212.741 -22.8784 215.945C-21.9171 216.266 -20.9558 216.906 -19.9945 217.227Z" fill="#35579C"/>
<path d="M138.564 63.7612C137.507 60.7233 136.258 57.7055 134.742 54.6978C133.634 52.5013 132.36 50.3047 130.925 48.1081C129.223 45.4984 127.284 42.8837 125.007 40.2488C117.312 31.3768 107.306 23.2404 96.8864 16.3534C89.0554 11.1794 84.0194 7.02804 80.8568 4.03042L80.1971 3.35029L77.4474 0.493726C77.3064 0.327472 77.1754 0.171293 77.0546 0.0251901L77.0244 0.0503802L76.979 0C76.9237 0.105799 76.8582 0.221673 76.7877 0.337548L74.8287 2.68023C74.2848 3.18403 73.615 3.72814 72.8193 4.28232C71.7668 5.02291 70.4826 5.79877 68.8862 6.57966C67.3804 7.32025 65.5876 8.07595 63.5027 8.80647C63.3466 8.86189 63.2056 8.9173 63.0444 8.97776C54.5134 11.9049 46.9644 16.5852 42.5176 23.3361C38.5896 29.3163 37.9903 36.4904 39.0025 44.4253C34.9838 41.2765 30.8391 38.3545 26.478 35.6944C23.1844 33.6893 19.7549 31.8454 16.1642 30.1979C14.0491 29.2306 11.8886 28.3036 9.64259 27.4824C-3.04815 22.8223 -16.3885 20.6761 -28.8526 20.3032C-36.0944 20.0866 -41.8808 19.346 -46.3729 18.4744C-47.7629 18.2024 -49.042 17.9203 -50.1852 17.6381L-55.7651 15.9453C-56.0169 15.8547 -56.2586 15.7589 -56.4751 15.6733L-56.455 15.7337L-56.5356 15.7136C-56.455 15.8849 -56.3644 16.0713 -56.2787 16.2678L-55.3068 19.1445L-54.8183 20.5854C-54.4104 22.2378 -54.083 24.2379 -53.9219 26.5605C-53.7809 28.5404 -53.7708 30.7723 -53.9521 33.261C-54.0428 34.4802 -54.1586 35.7347 -54.3449 37.0799C-55.7349 47.035 -54.7579 58.2547 -49.9586 69.4542C-45.7434 79.2834 -38.6024 87.8783 -29.9304 96.0046C-41.6089 94.8962 -52.7032 95.3345 -62.8256 99.1534C-74.5192 103.567 -83.9365 111.386 -91.002 120.575C-93.102 123.306 -95.1517 125.583 -97.1057 127.507C-99.397 129.759 -101.547 131.503 -103.501 132.853C-104.156 133.306 -104.796 133.739 -105.405 134.112L-110.31 136.566C-110.557 136.661 -110.788 136.747 -111 136.818L-110.919 136.873L-110.995 136.908C-110.758 137.034 -110.501 137.175 -110.229 137.326L-104.629 141.014C-103.763 141.654 -102.822 142.405 -101.834 143.201C-100.213 144.526 -98.4503 146.047 -96.5467 147.856C-96.1387 148.239 -95.7107 148.667 -95.2927 149.07C-94.8294 149.524 -94.3661 149.977 -93.8876 150.461C-93.2179 151.136 -92.538 151.841 -91.838 152.577C-90.0804 154.441 -88.2322 156.491 -86.3085 158.773C-85.2459 160.033 -84.1379 161.277 -83.0199 162.522C-73.6731 172.895 -62.4781 182.548 -49.8981 189.732C-37.7462 196.659 -25.549 200.06 -13.2209 201.818C-20.1051 209.35 -25.2066 218.026 -26.4706 229.326C-27.926 242.339 -24.9044 256.874 -19.4202 270.819C-16.9727 277.056 -15.4619 282.215 -14.5454 286.477C-13.9158 289.404 -13.5583 291.923 -13.3971 294.009L-13.4324 299.858C-13.4626 300.12 -13.4928 300.367 -13.523 300.594L-13.4374 300.584V300.669C-13.2007 300.609 -12.9389 300.548 -12.6669 300.488L-6.44242 299.727C-5.24888 299.667 -3.8942 299.647 -2.43879 299.667C2.80369 299.742 9.77353 300.422 18.8786 302.372C21.9103 303.017 24.9369 303.546 27.9686 303.999C40.3068 305.853 52.499 306.03 63.3013 303.652C74.738 301.138 83.1028 295.561 90.1029 288.528C93.2856 299.788 98.1655 310.68 106.797 321.018C116.577 332.726 129.298 342.429 142.356 349.84C145.998 351.906 149.15 353.881 151.875 355.735C153.436 356.798 154.836 357.816 156.13 358.793C158.598 360.662 160.622 362.375 162.234 363.881L166.514 368.375C166.696 368.592 166.862 368.798 167.013 368.995L167.043 368.924L167.103 368.99C167.159 368.788 167.219 368.572 167.29 368.345L169.284 363.675C169.521 363.237 169.783 362.783 170.06 362.31C171.193 360.41 172.729 358.254 174.743 355.911C176.571 353.79 178.792 351.518 181.552 349.12C190.138 341.654 197.113 332.273 200.457 321.27C203.307 311.904 202.773 302.075 200.648 291.893C209.829 298.876 219.292 304.387 229.721 306.992C241.349 309.899 252.63 309.385 262.405 306.916C263.447 306.654 264.434 306.438 265.406 306.241C267.667 305.783 269.737 305.491 271.606 305.329C274.446 305.083 276.843 305.128 278.797 305.314L283.188 306.08C283.39 306.136 283.581 306.191 283.758 306.246L283.727 306.176L283.793 306.186C283.687 306.005 283.576 305.803 283.465 305.586L282.75 303.989L281.33 300.82C280.675 299.118 280.001 297.067 279.346 294.689C278.409 291.243 277.533 287.087 276.893 282.099C275.463 270.965 272.19 259.206 266.444 248.294C265.351 246.218 264.162 244.233 262.913 242.304C260.189 238.102 257.117 234.218 253.773 230.55C251.693 228.278 249.528 226.076 247.262 223.94C255.516 224.006 262.828 222.666 268.579 218.323C274.96 213.506 278.983 206.075 281.194 197.949C281.3 197.551 281.411 197.193 281.522 196.821C282.186 194.569 282.901 192.689 283.627 191.138C284.599 189.057 285.586 187.535 286.492 186.452L288.668 184.392C288.778 184.316 288.889 184.241 288.99 184.18L288.935 184.14L288.965 184.11C288.809 184.019 288.637 183.913 288.461 183.802L286.527 182.417L284.629 181.057C283.702 180.326 282.65 179.444 281.506 178.437C278.621 175.888 275.08 172.401 270.86 167.63C263.372 159.161 254.735 151.146 245.554 145.025C243.621 146.682 241.697 148.33 239.773 149.962C248.521 155.917 256.744 163.58 263.89 171.676C267.592 175.872 270.755 179.021 273.414 181.455C273.998 181.989 274.592 182.533 275.126 182.991C273.842 184.906 272.477 187.727 271.268 191.737C271.173 192.055 271.067 192.327 270.976 192.664C268.755 200.594 264.736 207.829 258.411 212.499C252.942 216.544 246.068 217.89 238.338 217.9C236.354 217.905 234.324 217.819 232.244 217.673C234.178 219.366 236.061 221.079 237.879 222.827C244.985 229.648 251.195 237.064 255.858 245.966C261.483 256.713 264.656 268.28 266.001 279.238C266.499 283.308 267.174 286.774 267.904 289.787C268.332 291.561 268.775 293.218 269.229 294.644C266.338 294.578 262.717 294.86 258.391 295.732C257.57 295.898 256.764 296.044 255.888 296.261C246.32 298.584 235.291 299.007 223.93 296.115C214.15 293.631 205.246 288.563 196.625 282.129C194.439 280.492 192.263 278.769 190.108 276.981C190.747 279.449 191.312 281.893 191.775 284.316C193.613 293.833 193.94 303.027 191.201 311.793C187.847 322.499 180.917 331.608 172.416 338.847C170.221 340.717 168.373 342.51 166.781 344.213C164.721 346.42 163.11 348.48 161.871 350.329C161.458 349.987 161.015 349.629 160.567 349.266C159.857 348.697 159.091 348.107 158.285 347.508C156.906 346.475 155.375 345.397 153.698 344.268C151.28 342.656 148.571 340.968 145.464 339.195C132.793 331.971 120.45 322.534 110.937 311.169C102.884 301.546 98.1706 291.435 95.0432 280.991C94.2576 278.366 93.5727 275.721 92.9633 273.051C91.4173 274.829 89.8058 276.537 88.1187 278.154C81.451 284.543 73.5042 289.565 62.7775 291.833C57.2178 293.011 51.2652 293.47 45.1213 293.399C36.7917 293.299 28.1046 292.2 19.488 290.311C12.7548 288.835 7.22028 288.079 2.70801 287.752C1.56484 287.666 0.4972 287.616 -0.515038 287.581C-0.746694 287.575 -0.993458 287.565 -1.21504 287.56C-1.43663 286.165 -1.74382 284.633 -2.13159 282.976C-3.05822 279.016 -4.50355 274.3 -6.7345 268.683C-8.57768 264.048 -10.1187 259.347 -11.3273 254.657C-13.3216 246.934 -14.3489 239.266 -14.0619 231.991C-14.0115 230.762 -13.9612 229.532 -13.8403 228.328C-12.7425 217.774 -8.22013 209.572 -2.0208 202.448C-0.469713 200.665 1.18714 198.947 2.91952 197.279C-0.0063952 196.997 -2.91721 196.639 -5.83306 196.176C-6.80501 196.019 -7.77696 195.843 -8.75394 195.667C-17.7029 194.045 -26.5915 191.41 -35.4498 186.971C-36.9556 186.22 -38.4613 185.419 -39.9621 184.558C-47.9794 179.963 -55.4176 174.311 -62.1608 168.129C-66.8997 163.791 -71.3112 159.191 -75.3048 154.476C-76.7803 152.728 -78.2055 151.126 -79.5854 149.639C-81.2171 147.866 -82.7833 146.279 -84.2638 144.838C-86.2178 142.944 -88.0459 141.301 -89.7128 139.911C-89.7682 139.866 -89.8337 139.81 -89.8891 139.765C-89.7732 139.679 -89.6524 139.578 -89.5365 139.488C-87.6077 138.012 -85.5027 136.143 -83.2919 133.78C-81.7962 132.173 -80.2451 130.344 -78.6688 128.248C-71.8602 119.19 -62.75 111.456 -51.4089 107.063C-41.9866 103.41 -31.6678 102.821 -20.8051 103.693C-18.0756 103.914 -15.3209 104.222 -12.5259 104.599C-14.7367 102.69 -16.877 100.755 -18.9267 98.7957C-26.9239 91.1429 -33.516 83.0569 -37.4995 73.8474C-42.2232 62.9249 -43.2556 51.9773 -41.9866 42.2539C-41.8405 41.1304 -41.7549 40.0926 -41.6794 39.0648C-41.3772 34.9639 -41.5686 31.5531 -42.0168 28.8175C-41.2211 28.9686 -40.3347 29.1097 -39.4484 29.2508C-35.3995 29.9057 -30.4944 30.4297 -24.5469 30.5758C-12.2993 30.8781 0.809438 32.9235 13.2887 37.4728C23.7535 41.2866 32.7125 46.7982 41.1076 53.2519C43.2277 54.8842 45.3177 56.5821 47.3824 58.3202C46.9796 56.31 46.6572 54.3401 46.4357 52.4156C45.5644 44.9694 46.209 38.2185 49.8551 32.5507C54.1458 25.8753 61.4782 21.2353 69.7725 18.3031C69.8682 18.2679 69.9538 18.2326 70.0445 18.1973C72.8898 17.1847 75.1409 16.1368 76.9186 15.1292C78.0165 14.5095 78.933 13.8949 79.7086 13.3155C82.8158 16.0008 87.1518 19.3611 93.1748 23.3311C103.463 30.1123 113.339 38.1378 120.923 46.8939C127.374 54.3502 131.247 61.7007 133.936 69.1771C134.591 70.9958 135.17 72.8297 135.699 74.6686C136.006 74.5325 136.318 74.3965 136.626 74.2605C137.542 73.4745 138.464 72.6937 139.446 71.9934C143.469 69.1267 148.082 67.0763 153.844 66.3508C159.333 63.7915 164.772 61.217 170.135 58.6225C165.875 57.8214 161.72 57.3579 157.817 57.3982C149.694 57.5141 143.691 60.0079 138.564 63.7612Z" fill="#D14A37"/>
</svg>
