<svg width="285" height="260" viewBox="0 0 285 260" fill="none" xmlns="http://www.w3.org/2000/svg">
<path d="M280.164 248.629C287.534 252.795 295.224 256.64 302.594 260.485C301.953 263.369 300.992 266.574 299.71 269.457C298.428 272.982 297.467 276.186 296.826 278.43C296.506 278.43 296.506 278.43 296.185 278.109L294.904 277.789L295.224 279.07C295.544 279.711 295.544 280.673 295.865 281.313C295.224 281.313 294.583 281.313 293.942 281.313C287.213 277.789 280.484 274.264 273.755 270.419C191.404 223.956 98.799 154.102 11.0006 49C10.6801 49 126.356 165.317 280.164 248.629Z" fill="#2B3760"/>
<path d="M293.622 223.956C294.583 224.917 295.865 226.199 296.826 227.16C300.671 231.646 303.555 236.773 304.196 243.502C304.196 244.143 304.196 245.104 304.196 245.745C297.467 242.541 290.738 239.336 283.688 236.132C214.475 202.166 138.212 152.82 62.5901 81.3633C62.5901 81.3633 159.681 158.908 289.456 217.547C293.301 219.149 297.147 221.072 300.992 222.674C300.351 222.674 299.71 222.994 299.069 222.994C297.147 223.635 295.224 223.635 293.622 223.956Z" fill="#2C457B"/>
<path d="M317.975 217.227C309.643 214.343 301.312 210.818 292.66 207.614C238.187 185.504 179.227 154.102 118.986 109.562C118.986 109.562 194.608 156.024 297.147 192.874C309.323 197.36 322.14 201.526 334.958 205.371C330.792 209.216 325.985 212.741 320.858 215.945C319.897 216.266 318.936 216.906 317.975 217.227Z" fill="#35579C"/>
<path d="M151.116 63.7612C152.173 60.7233 153.422 57.7055 154.938 54.6978C156.046 52.5013 157.32 50.3047 158.755 48.1081C160.458 45.4984 162.396 42.8837 164.673 40.2488C172.368 31.3768 182.374 23.2404 192.794 16.3534C200.625 11.1794 205.661 7.02804 208.823 4.03042L209.483 3.35029L212.233 0.493726C212.374 0.327472 212.505 0.171293 212.626 0.0251901L212.656 0.0503802L212.701 0C212.757 0.105799 212.822 0.221673 212.892 0.337548L214.851 2.68023C215.395 3.18403 216.065 3.72814 216.861 4.28232C217.913 5.02291 219.198 5.79877 220.794 6.57966C222.3 7.32025 224.093 8.07595 226.177 8.80647C226.334 8.86189 226.475 8.9173 226.636 8.97776C235.167 11.9049 242.716 16.5852 247.163 23.3361C251.091 29.3163 251.69 36.4904 250.678 44.4253C254.696 41.2765 258.841 38.3545 263.202 35.6944C266.496 33.6893 269.925 31.8454 273.516 30.1979C275.631 29.2306 277.792 28.3036 280.038 27.4824C292.728 22.8223 306.069 20.6761 318.533 20.3032C325.775 20.0866 331.561 19.346 336.053 18.4744C337.443 18.2024 338.722 17.9203 339.865 17.6381L345.445 15.9453C345.697 15.8547 345.939 15.7589 346.155 15.6733L346.135 15.7337L346.216 15.7136C346.135 15.8849 346.045 16.0713 345.959 16.2678L344.987 19.1445L344.498 20.5854C344.091 22.2378 343.763 24.2379 343.602 26.5605C343.461 28.5404 343.451 30.7723 343.632 33.261C343.723 34.4802 343.839 35.7347 344.025 37.0799C345.415 47.035 344.438 58.2547 339.639 69.4542C335.424 79.2834 328.283 87.8783 319.611 96.0046C331.289 94.8962 342.383 95.3345 352.506 99.1534C364.199 103.567 373.617 111.386 380.682 120.575C382.782 123.306 384.832 125.583 386.786 127.507C389.077 129.759 391.228 131.503 393.182 132.853C393.836 133.306 394.476 133.739 395.085 134.112L399.99 136.566C400.237 136.661 400.469 136.747 400.68 136.818L400.6 136.873L400.675 136.908C400.438 137.034 400.182 137.175 399.91 137.326L394.31 141.014C393.443 141.654 392.502 142.405 391.515 143.201C389.893 144.526 388.13 146.047 386.227 147.856C385.819 148.239 385.391 148.667 384.973 149.07C384.51 149.524 384.046 149.977 383.568 150.461C382.898 151.136 382.218 151.841 381.518 152.577C379.761 154.441 377.912 156.491 375.989 158.773C374.926 160.033 373.818 161.277 372.7 162.522C363.353 172.895 352.158 182.548 339.578 189.732C327.426 196.659 315.229 200.06 302.901 201.818C309.785 209.35 314.887 218.026 316.151 229.326C317.606 242.339 314.585 256.874 309.1 270.819C306.653 277.056 305.142 282.215 304.226 286.477C303.596 289.404 303.238 291.923 303.077 294.009L303.113 299.858C303.143 300.12 303.173 300.367 303.203 300.594L303.118 300.584V300.669C302.881 300.609 302.619 300.548 302.347 300.488L296.123 299.727C294.929 299.667 293.574 299.647 292.119 299.667C286.876 299.742 279.907 300.422 270.802 302.372C267.77 303.017 264.743 303.546 261.712 303.999C249.373 305.853 237.181 306.03 226.379 303.652C214.942 301.138 206.577 295.561 199.577 288.528C196.395 299.788 191.515 310.68 182.883 321.018C173.103 332.726 160.382 342.429 147.324 349.84C143.683 351.906 140.53 353.881 137.806 355.735C136.244 356.798 134.844 357.816 133.55 358.793C131.083 360.662 129.058 362.375 127.447 363.881L123.166 368.375C122.985 368.592 122.818 368.798 122.667 368.995L122.637 368.924L122.577 368.99C122.521 368.788 122.461 368.572 122.39 368.345L120.396 363.675C120.159 363.237 119.898 362.783 119.621 362.31C118.487 360.41 116.952 358.254 114.937 355.911C113.109 353.79 110.888 351.518 108.128 349.12C99.542 341.654 92.5672 332.273 89.2233 321.27C86.3729 311.904 86.9067 302.075 89.0319 291.893C79.8513 298.876 70.3886 304.387 59.959 306.992C48.3309 309.899 37.0502 309.385 27.2753 306.916C26.2329 306.654 25.2458 306.438 24.2739 306.241C22.0127 305.783 19.9429 305.491 18.0746 305.329C15.2342 305.083 12.8371 305.128 10.8831 305.314L6.49172 306.08C6.29028 306.136 6.09892 306.191 5.92266 306.246L5.9529 306.176L5.88743 306.186C5.99318 306.005 6.10395 305.803 6.21474 305.586L6.92988 303.989L8.35003 300.82C9.00471 299.118 9.67952 297.067 10.3342 294.689C11.2709 291.243 12.1472 287.087 12.7867 282.099C14.217 270.965 17.4904 259.206 23.2365 248.294C24.3293 246.218 25.5178 244.233 26.7667 242.304C29.4912 238.102 32.5631 234.218 35.9071 230.55C37.9869 228.278 40.1524 226.076 42.4186 223.94C34.1646 224.006 26.8523 222.666 21.1012 218.323C14.7206 213.506 10.6968 206.075 8.486 197.949C8.38024 197.551 8.26944 197.193 8.15865 196.821C7.49389 194.569 6.77878 192.689 6.0536 191.138C5.08165 189.057 4.09459 187.535 3.18811 186.452L1.01256 184.392C0.901766 184.316 0.790959 184.241 0.690239 184.18L0.745643 184.14L0.715444 184.11C0.87156 184.019 1.04278 183.913 1.21904 183.802L3.15288 182.417L5.05145 181.057C5.97807 180.326 7.03057 179.444 8.17375 178.437C11.0594 175.888 14.5997 172.401 18.8199 167.63C26.3084 159.161 34.9452 151.146 44.1258 145.025C46.0596 146.682 47.9834 148.33 49.9072 149.962C41.1596 155.917 32.9358 163.58 25.7897 171.676C22.0882 175.872 18.9256 179.021 16.2666 181.455C15.6824 181.989 15.0882 182.533 14.5544 182.991C15.8386 184.906 17.2033 187.727 18.412 191.737C18.5077 192.055 18.6134 192.327 18.7041 192.664C20.9249 200.594 24.9437 207.829 31.2689 212.499C36.738 216.544 43.6122 217.89 51.3424 217.9C53.3266 217.905 55.3561 217.819 57.436 217.673C55.5022 219.366 53.6187 221.079 51.8007 222.827C44.6949 229.648 38.4855 237.064 33.8221 245.966C28.1969 256.713 25.0242 268.28 23.6796 279.238C23.1811 283.308 22.5062 286.774 21.776 289.787C21.348 291.561 20.9048 293.218 20.4516 294.644C23.3422 294.578 26.9631 294.86 31.289 295.732C32.1099 295.898 32.9157 296.044 33.7919 296.261C43.3604 298.584 54.3892 299.007 65.7504 296.115C75.5303 293.631 84.434 288.563 93.0557 282.129C95.2413 280.492 97.4168 278.769 99.5723 276.981C98.9327 279.449 98.3686 281.893 97.9053 284.316C96.0672 293.833 95.7399 303.027 98.4794 311.793C101.833 322.499 108.763 331.608 117.264 338.847C119.459 340.717 121.308 342.51 122.899 344.213C124.959 346.42 126.57 348.48 127.809 350.329C128.222 349.987 128.665 349.629 129.113 349.266C129.824 348.697 130.589 348.107 131.395 347.508C132.775 346.475 134.306 345.397 135.983 344.268C138.4 342.656 141.109 340.968 144.216 339.195C156.887 331.971 169.23 322.534 178.743 311.169C186.796 301.546 191.51 291.435 194.637 280.991C195.423 278.366 196.107 275.721 196.717 273.051C198.263 274.829 199.874 276.537 201.561 278.154C208.229 284.543 216.176 289.565 226.903 291.833C232.462 293.011 238.415 293.47 244.559 293.399C252.888 293.299 261.576 292.2 270.192 290.311C276.925 288.835 282.46 288.079 286.972 287.752C288.115 287.666 289.183 287.616 290.195 287.581C290.427 287.575 290.674 287.565 290.895 287.56C291.117 286.165 291.424 284.633 291.812 282.976C292.738 279.016 294.184 274.3 296.415 268.683C298.258 264.048 299.799 259.347 301.008 254.657C303.002 246.934 304.029 239.266 303.742 231.991C303.692 230.762 303.641 229.532 303.52 228.328C302.423 217.774 297.9 209.572 291.701 202.448C290.15 200.665 288.493 198.947 286.761 197.279C289.687 196.997 292.597 196.639 295.513 196.176C296.485 196.019 297.457 195.843 298.434 195.667C307.383 194.045 316.272 191.41 325.13 186.971C326.636 186.22 328.142 185.419 329.642 184.558C337.66 179.963 345.098 174.311 351.841 168.129C356.58 163.791 360.991 159.191 364.985 154.476C366.461 152.728 367.886 151.126 369.266 149.639C370.897 147.866 372.463 146.279 373.944 144.838C375.898 142.944 377.726 141.301 379.393 139.911C379.448 139.866 379.514 139.81 379.569 139.765C379.453 139.679 379.333 139.578 379.217 139.488C377.288 138.012 375.183 136.143 372.972 133.78C371.476 132.173 369.925 130.344 368.349 128.248C361.54 119.19 352.43 111.456 341.089 107.063C331.667 103.41 321.348 102.821 310.485 103.693C307.756 103.914 305.001 104.222 302.206 104.599C304.417 102.69 306.557 100.755 308.607 98.7957C316.604 91.1429 323.196 83.0569 327.18 73.8474C331.903 62.9249 332.936 51.9773 331.667 42.2539C331.521 41.1304 331.435 40.0926 331.36 39.0648C331.057 34.9639 331.249 31.5531 331.697 28.8175C330.901 28.9686 330.015 29.1097 329.129 29.2508C325.08 29.9057 320.175 30.4297 314.227 30.5758C301.979 30.8781 288.871 32.9235 276.392 37.4728C265.927 41.2866 256.968 46.7982 248.573 53.2519C246.452 54.8842 244.363 56.5821 242.298 58.3202C242.701 56.31 243.023 54.3401 243.245 52.4156C244.116 44.9694 243.471 38.2185 239.825 32.5507C235.534 25.8753 228.202 21.2353 219.908 18.3031C219.812 18.2679 219.726 18.2326 219.636 18.1973C216.79 17.1847 214.539 16.1368 212.762 15.1292C211.664 14.5095 210.747 13.8949 209.972 13.3155C206.864 16.0008 202.528 19.3611 196.505 23.3311C186.217 30.1123 176.341 38.1378 168.757 46.8939C162.306 54.3502 158.433 61.7007 155.744 69.1771C155.089 70.9958 154.51 72.8297 153.981 74.6686C153.674 74.5325 153.362 74.3965 153.055 74.2605C152.138 73.4745 151.217 72.6937 150.234 71.9934C146.211 69.1267 141.598 67.0763 135.837 66.3508C130.347 63.7915 124.908 61.217 119.545 58.6225C123.806 57.8214 127.96 57.3579 131.863 57.3982C139.986 57.5141 145.989 60.0079 151.116 63.7612Z" fill="#D14A37"/>
</svg>
