<svg width="84" height="88" viewBox="0 0 84 88" fill="none" xmlns="http://www.w3.org/2000/svg">
<path d="M39.1605 47.5349C37.9389 48.3911 36.6642 49.1814 35.4426 49.9717C35.5489 50.5644 35.7082 51.223 35.9206 51.8158C36.1331 52.5402 36.2924 53.1988 36.3987 53.6598C36.4518 53.6598 36.4518 53.6598 36.5049 53.594L36.7173 53.5281L36.6642 53.7915C36.6642 53.9233 36.6111 54.1208 36.6111 54.2526C36.7173 54.2526 36.8236 54.2526 36.9298 54.2526C38.0452 53.5281 39.1605 52.8037 40.2759 52.0133C53.9259 42.4638 69.2755 28.1065 83.8284 6.50464C83.8284 6.50464 64.6547 30.4115 39.1605 47.5349Z" fill="#2B3760"/>
<path d="M36.9297 42.4638C36.7704 42.6614 36.5579 42.9248 36.3986 43.1224C35.7612 44.0445 35.2832 45.0982 35.177 46.4812C35.177 46.613 35.177 46.8105 35.177 46.9423C36.2924 46.2837 37.4077 45.6251 38.5762 44.9665C50.0486 37.9854 62.6894 27.8431 75.224 13.1565C75.224 13.1565 59.1309 29.0944 37.6202 41.1466C36.9828 41.4759 36.3455 41.8711 35.7081 42.2004C35.8144 42.2004 35.9206 42.2663 36.0268 42.2663C36.3455 42.3321 36.6642 42.398 36.9297 42.4638Z" fill="#2C457B"/>
<path d="M32.8931 41.0806C34.274 40.4879 35.655 39.7634 37.089 39.1048C46.1182 34.5605 55.8909 28.1063 65.8761 18.9519C65.8761 18.9519 53.3415 28.5015 36.3454 36.0753C34.3271 36.9973 32.2026 37.8535 30.0781 38.6438C30.7686 39.4341 31.5653 40.1586 32.4151 40.8172C32.5744 40.883 32.7338 41.0147 32.8931 41.0806Z" fill="#35579C"/>
<path d="M10.9411 66.5298C13.0656 65.7395 15.3495 64.7516 17.7927 63.632C17.3147 61.9197 16.996 60.2073 16.7835 58.6267C14.0217 59.8122 11.2598 60.8659 8.44482 61.7221L10.9411 66.5298Z" fill="#2B3760"/>
<path d="M6.53287 57.9021C9.61342 57.1118 13.0126 55.9922 16.6774 54.6091C16.6774 54.3457 16.7305 54.1481 16.7305 53.8847C16.7836 53.4237 16.8368 52.9626 16.943 52.5016C16.1994 52.0406 15.5089 51.7113 14.9247 51.4479L13.9156 51.1186H13.8624L13.4907 51.0527C10.4632 52.0406 7.38268 52.8968 4.24902 53.4895L6.53287 57.9021Z" fill="#2C457B"/>
<path d="M2.12451 49.2745C5.62996 48.8793 9.61341 48.1549 13.9155 47.0353C13.9687 46.8377 14.0218 46.6401 14.0218 46.4425C13.5438 46.1791 13.0657 45.8498 12.6408 45.5864C11.8973 45.0595 11.1537 44.4668 10.4101 43.874C6.95777 44.5326 3.50544 44.9936 0 45.1912L2.12451 49.2745Z" fill="#35579C"/>
<path d="M24.9083 53.3062L24.6958 53.372C24.6427 53.372 24.6427 53.372 24.5896 53.4379C24.6427 53.6355 24.6427 53.833 24.6958 54.0306H24.7489C24.7489 53.8989 24.8021 53.7013 24.8552 53.5696L24.9083 53.3062Z" fill="black"/>
<path d="M41.5327 61.6692V61.8668C41.6389 61.9326 41.6921 61.9985 41.7983 62.0643L41.7452 61.9985L41.5327 61.6692Z" fill="black"/>
<path d="M24.4849 34.6697C24.4318 34.7355 24.4318 34.7355 24.4849 34.6697V34.6697Z" fill="black"/>
<path d="M50.3617 24.7916C50.2555 24.3965 50.0962 24.0013 49.9368 23.6062C49.8306 23.3428 49.6713 23.0135 49.5119 22.7501C49.3526 22.4209 49.1401 22.0916 48.8746 21.6965C48.0779 20.5111 47.0156 19.4575 45.9003 18.6014C45.0505 17.9428 44.5193 17.3502 44.2007 17.0209V16.8892L43.9351 16.4941L43.882 16.4282C43.882 16.4282 43.882 16.4282 43.882 16.4941L43.6695 16.8233C43.6164 16.8892 43.5633 16.955 43.4571 17.0209C43.3509 17.0868 43.1915 17.2185 43.0322 17.3502C42.8728 17.416 42.6604 17.5477 42.4479 17.6136H42.3948C41.4919 18.0087 40.6952 18.6014 40.2172 19.4575C39.7923 20.2477 39.7392 21.1696 39.8454 22.2233C39.4205 21.8282 38.9956 21.4331 38.5176 21.1038C38.1458 20.8404 37.8271 20.577 37.4553 20.3794C37.2429 20.2477 37.0304 20.116 36.7649 20.0501C35.437 19.4575 34.003 19.1282 32.7283 19.1282C31.9847 19.1282 31.3474 18.9965 30.8693 18.8648C30.71 18.7989 30.6038 18.7989 30.4444 18.7331L29.8602 18.5355C29.8071 18.5355 29.8071 18.5355 29.8071 18.4697C29.8071 18.4697 29.8071 18.5355 29.8602 18.5355L29.9664 18.9306L30.0195 19.1282C30.0727 19.3258 30.0727 19.5892 30.1258 19.9184C30.1258 20.1819 30.1258 20.4453 30.1258 20.7745C30.1258 20.9062 30.1258 21.1038 30.0727 21.3014C29.9133 22.6184 30.0195 24.0672 30.5507 25.516C30.9756 26.833 31.7723 27.9525 32.6752 29.0062C31.4536 28.8745 30.2851 28.9403 29.2229 29.4013C28.0013 29.994 26.9921 30.9818 26.2485 32.233C26.0361 32.5622 25.8236 32.8915 25.6112 33.1549C25.3456 33.4183 25.1332 33.6817 24.9207 33.8793C24.8676 33.9452 24.7614 34.011 24.7083 34.011L24.1771 34.3403H24.124C24.124 34.3403 24.1771 34.4061 24.2302 34.4061L24.8145 34.8671C24.9207 34.9329 25.0269 35.0647 25.1332 35.1305C25.2925 35.3281 25.505 35.5256 25.7174 35.7232C25.7705 35.789 25.8236 35.8549 25.8236 35.8549C25.8767 35.9207 25.9299 35.9866 25.983 36.0525C26.0361 36.1183 26.1423 36.25 26.1954 36.3159C26.3548 36.5793 26.5672 36.8427 26.7797 37.1061C26.8859 37.2378 26.9921 37.4354 27.1515 37.5671C28.1606 38.95 29.3291 40.2012 30.6569 41.1231C31.9316 42.0451 33.2063 42.4402 34.5341 42.7036C33.7906 43.6914 33.2594 44.8109 33.1532 46.3255C32.9939 48.0377 33.3125 49.9475 33.8968 51.7255C34.1623 52.5157 34.3217 53.2401 34.4279 53.7669C34.481 54.1621 34.5341 54.4913 34.5341 54.7547V55.545C34.5341 55.6108 34.5341 55.6108 34.5341 55.6108C34.5341 55.6108 34.5872 55.6108 34.6404 55.6108L35.2777 55.4791C35.3839 55.4791 35.5433 55.4791 35.7026 55.4791C36.2337 55.4791 36.9773 55.6108 37.9333 55.8084C38.252 55.8742 38.5707 55.9401 38.8894 56.006C40.1641 56.2694 41.4919 56.2694 42.6073 55.9401C43.8289 55.6108 44.6787 54.8864 45.4223 53.9645C45.7409 55.4133 46.2721 56.862 47.175 58.1791C48.1841 59.6937 49.565 61.0108 50.946 61.9327C51.3178 62.1961 51.6364 62.4596 51.9551 62.723C52.1145 62.8547 52.2738 62.9864 52.38 63.1181C52.6456 63.3815 52.858 63.5791 53.0174 63.7766L53.4954 64.3693L53.5485 64.4352V64.3693L53.761 63.7766C53.761 63.7108 53.8141 63.6449 53.8672 63.5791C53.9734 63.3156 54.1327 63.0522 54.3452 62.723C54.5576 62.4596 54.7701 62.1303 55.0888 61.8669C55.9917 60.8791 56.7353 59.6937 57.1071 58.245C57.4257 56.9937 57.3726 55.7425 57.1071 54.4255C58.0631 55.3474 59.0722 56.0718 60.1876 56.4011C61.4092 56.7962 62.5777 56.7303 63.6399 56.4011C63.7462 56.3352 63.8524 56.3352 63.9586 56.3352C64.1711 56.2694 64.4366 56.2694 64.596 56.2035C64.9146 56.2035 65.1271 56.2035 65.3396 56.2035L65.8176 56.3352H65.8707C65.8707 56.3352 65.8707 56.2694 65.8176 56.2694L65.7644 56.0718L65.6051 55.6767C65.552 55.4791 65.4458 55.2157 65.3927 54.8864C65.2864 54.4255 65.1802 53.8987 65.1271 53.2401C64.9678 51.7914 64.6491 50.2767 64.0117 48.828C63.9055 48.5646 63.7462 48.3011 63.6399 48.0377C63.3744 47.5109 63.0026 46.9841 62.6839 46.5231C62.4715 46.1938 62.259 45.9304 61.9934 45.667C62.8432 45.667 63.6399 45.4695 64.2242 44.9426C64.9146 44.2841 65.3395 43.3622 65.552 42.3085C65.552 42.2426 65.552 42.1768 65.6051 42.1768C65.6582 41.9134 65.7645 41.65 65.8176 41.4524C65.9238 41.189 66.03 40.9914 66.1362 40.8597L66.3487 40.5963C66.3487 40.5963 66.3487 40.5963 66.4018 40.5963C66.4018 40.5963 66.3487 40.5963 66.3487 40.5305L66.1362 40.3329L65.9238 40.1353C65.8176 40.0695 65.7113 39.9378 65.6051 39.8061C65.2864 39.4768 64.9146 39.0158 64.4897 38.4232C63.6931 37.3037 62.7901 36.25 61.8341 35.4598C61.6217 35.6573 61.4092 35.9207 61.2499 36.1183C62.1528 36.9085 63.0557 37.8963 63.7993 38.95C64.1711 39.4768 64.5429 39.9378 64.8084 40.2012C64.8615 40.2671 64.9146 40.3329 64.9678 40.3988C64.8084 40.6622 64.7022 40.9914 64.5429 41.5183C64.5429 41.5841 64.5429 41.5841 64.4897 41.65C64.2773 42.7036 63.8524 43.6256 63.1619 44.2182C62.5777 44.7451 61.8341 44.9426 61.0374 44.9426C60.825 44.9426 60.6125 44.9426 60.4001 44.9426C60.6125 45.1402 60.825 45.4036 60.9843 45.6012C61.7279 46.5231 62.3652 47.445 62.8964 48.6304C63.4806 50.0133 63.7993 51.5279 63.9586 52.9767C64.0117 53.5035 64.0648 53.9645 64.1711 54.3596C64.2242 54.623 64.2773 54.8206 64.3304 55.0182C64.0117 55.0182 63.6399 55.0182 63.1619 55.1499C63.0557 55.1499 63.0026 55.2157 62.8964 55.2157C61.8872 55.545 60.7187 55.545 59.5503 55.2157C58.5411 54.8864 57.5851 54.2279 56.6822 53.3718C56.4697 53.1743 56.2041 52.9109 55.9917 52.7133C56.0448 53.0426 56.0979 53.3718 56.151 53.7011C56.3635 54.9523 56.3635 56.1377 56.0979 57.323C55.7261 58.7059 55.0357 59.8913 54.1327 60.8791C53.9203 61.1425 53.7078 61.3401 53.5485 61.6035C53.3361 61.8669 53.1767 62.1303 53.0174 62.3937C52.9643 62.3279 52.9112 62.3279 52.858 62.262C52.8049 62.1961 52.6987 62.1303 52.5925 62.0644C52.4331 61.9327 52.2738 61.801 52.1145 61.6693C51.8489 61.4718 51.5833 61.2084 51.2647 61.0108C49.9368 60.0888 48.609 58.8376 47.5999 57.323C46.7501 56.0718 46.2721 54.7547 45.9003 53.3718C45.794 53.0426 45.7409 52.7133 45.6878 52.3182C45.5285 52.5816 45.3691 52.7791 45.1567 52.9767C44.4662 53.8328 43.6164 54.4913 42.501 54.7547C41.9168 54.8865 41.2795 54.9523 40.6421 54.9523C39.7392 54.9523 38.8363 54.8206 37.9333 54.5572C37.2429 54.3596 36.6586 54.2938 36.1806 54.2279C36.0744 54.2279 35.9682 54.2279 35.862 54.2279H35.8088C35.8088 54.0304 35.7557 53.8328 35.7026 53.6352C35.5964 53.1084 35.437 52.5157 35.2246 51.7914C35.0121 51.1987 34.8528 50.5401 34.7466 49.9475C34.5341 48.9597 34.4279 47.906 34.481 46.9841C34.481 46.8524 34.481 46.6548 34.481 46.5231C34.5872 45.1402 35.0653 44.0865 35.7026 43.1646C35.8619 42.9012 36.0213 42.7036 36.2337 42.5061C35.9151 42.4402 35.5964 42.4402 35.3308 42.3744C35.2246 42.3744 35.1184 42.3085 35.0121 42.3085C34.0561 42.1109 33.1532 41.7817 32.1972 41.189C32.0378 41.1231 31.8785 40.9914 31.7192 40.8597C30.8693 40.2671 30.0727 39.5427 29.3822 38.6866C28.9042 38.0939 28.4262 37.5012 28.0013 36.9085C27.8419 36.711 27.6826 36.4476 27.5232 36.25C27.3639 35.9866 27.2046 35.789 27.0452 35.5915C26.8328 35.3281 26.6203 35.1305 26.461 34.933C26.461 34.933 26.461 34.9329 26.5141 34.8671C26.7266 34.6695 26.939 34.4061 27.1515 34.1427C27.3108 33.9452 27.4701 33.6817 27.6295 33.4183C28.373 32.233 29.3291 31.2452 30.4976 30.6525C31.5067 30.1915 32.569 30.1257 33.7374 30.1915C34.003 30.1915 34.3217 30.2574 34.5872 30.3232C34.3748 30.0598 34.1092 29.7964 33.8968 29.533C33.047 28.5452 32.3565 27.4915 31.9316 26.2403C31.4536 24.7916 31.3474 23.4087 31.4536 22.0916C31.4536 21.9599 31.4536 21.8282 31.5067 21.6965C31.5598 21.1696 31.5067 20.7087 31.4536 20.3794C31.5598 20.3794 31.6129 20.4453 31.7192 20.4453C32.1441 20.5111 32.6752 20.577 33.3125 20.6428C34.5872 20.7087 35.9682 20.9721 37.296 21.5648C38.4114 22.0916 39.3674 22.816 40.2172 23.6062C40.4296 23.8038 40.6421 24.0672 40.8545 24.2647C40.8014 24.0013 40.8014 23.7379 40.7483 23.4745C40.6421 22.4867 40.7483 21.6306 41.1201 20.9062C41.5981 20.0501 42.3417 19.4575 43.2446 19.0623C43.2446 19.0623 43.2446 19.0623 43.2977 19.0623C43.6164 18.9306 43.8289 18.7989 44.0413 18.6672C44.1475 18.6014 44.2538 18.5355 44.36 18.4038C44.6787 18.7331 45.1567 19.1941 45.794 19.7209C46.8563 20.577 47.9186 21.6306 48.7152 22.816C49.4057 23.8038 49.8306 24.7257 50.0962 25.7135C50.1493 25.9769 50.2024 26.1745 50.3086 26.4379C50.3617 26.4379 50.3617 26.372 50.4149 26.372C50.5211 26.2403 50.6273 26.1745 50.7335 26.0428C51.1584 25.6477 51.6364 25.3842 52.2738 25.3184C52.858 24.9891 53.4423 24.6599 53.9734 24.3306C53.5485 24.1989 53.0705 24.133 52.6987 24.1989C51.5302 23.9355 50.8929 24.2647 50.3617 24.7916Z" fill="#A82021"/>
<path d="M79.0427 71.0863L78.6709 70.2961L78.1929 69.1107C77.8211 67.9254 77.5024 66.5424 77.29 64.8961C76.9182 62.0644 76.1746 59.3645 75.1654 57.0596C74.8999 56.4669 74.6343 55.9401 74.3156 55.4133C74.6343 55.084 75.0061 54.8206 75.3248 54.6889L75.8028 54.5572L76.1215 54.4913L76.0684 54.4255L75.909 54.2279L75.3248 53.4377C75.0061 52.9109 74.6343 52.2523 74.3156 51.5279C74.6343 51.3304 74.8999 51.1328 75.1654 50.8694C76.1746 49.8158 76.9182 48.1694 77.29 46.0621C77.5024 44.7451 77.8211 44.0865 78.0335 43.6914L78.3522 43.2963L78.7771 42.9012L78.724 42.8353V42.7695L78.3522 42.5061L77.6086 41.8475C76.8651 41.1231 76.0684 40.1353 75.2186 38.95C73.6783 36.7768 71.9787 34.9329 70.3853 33.6159C69.9073 33.2208 69.4824 32.8915 69.0044 32.6281C68.9512 32.0354 68.9512 31.5086 69.0044 31.1135L69.1106 30.5866L69.1637 30.3891L68.367 30.0598C67.9952 29.8623 67.6234 29.5988 67.1985 29.2696C66.1894 30.4549 65.1271 31.5744 64.118 32.6939C64.4898 32.7598 64.8616 32.8915 65.1802 32.9574C66.1363 33.2208 67.0392 33.6159 67.889 34.1427C68.0483 35.6573 67.9421 36.9744 67.6234 37.9622C67.3047 38.95 66.7736 39.6744 65.9238 40.2671L66.1363 40.4646C66.1363 40.4646 66.1894 40.4646 66.1894 40.5305C66.1894 40.5305 66.1894 40.5305 66.1363 40.5305L65.9238 40.7939C65.8176 40.9256 65.7114 41.1231 65.6051 41.3866C65.7114 41.4524 65.8707 41.5841 65.9769 41.65C67.3579 42.6378 68.4732 43.6914 69.4824 44.9426C70.4915 46.2597 71.4475 47.906 72.2973 49.7499C71.7131 50.0133 71.0226 50.145 70.1728 50.145C69.8542 50.145 69.4824 50.145 69.1106 50.0792L68.0483 50.0133L68.845 50.8694C69.2168 51.2645 69.5355 51.6596 69.9073 52.0548C70.7571 53.1084 71.5007 54.0962 72.138 55.1499C71.2882 56.006 70.2791 56.5986 69.2168 56.7303C68.1546 56.9279 66.9861 56.7303 65.552 56.1377L65.6051 56.3352C65.6051 56.3352 65.6051 56.4011 65.6583 56.4011H65.6051L65.1271 56.2694C64.9147 56.2694 64.6491 56.2694 64.3835 56.2694C64.4898 56.5328 64.6491 56.7303 64.7553 56.9937C65.7114 58.9035 66.2425 60.6157 66.4549 62.262C66.6674 64.04 66.6143 65.8839 66.2956 67.7278C65.3396 67.201 64.3835 66.4766 63.3213 65.4888C62.9495 65.1595 62.5246 64.7644 62.0997 64.3034L61.2499 63.3815L61.5686 64.7644C61.7279 65.3571 61.8341 65.9498 61.9404 66.4766C62.2059 67.9254 62.3121 69.2424 62.259 70.4278C60.5063 69.901 58.8598 69.0449 57.4258 67.9254C56.0979 66.8717 54.8764 65.4888 53.761 63.6449C53.7079 63.7108 53.7079 63.7766 53.6548 63.8425L53.4423 64.4352V64.501L53.3892 64.4352L52.9112 63.8425C52.7518 63.6449 52.5394 63.4473 52.2738 63.1839V63.2498C51.902 65.2254 51.2116 66.6742 50.2555 67.7937C49.1402 69.0449 47.653 69.9668 45.7941 70.5595C45.1036 69.1766 44.5725 67.6619 44.1476 65.8839C43.9882 65.2912 43.882 64.6327 43.7227 63.9742L43.5633 63.1181L43.0853 63.7766C42.7666 64.2376 42.5011 64.6327 42.1824 65.0278C41.3326 66.1473 40.3766 66.9376 39.4205 67.5302C37.9334 65.3571 36.818 63.1181 36.1807 60.9449C35.8089 59.7596 35.5964 58.5742 35.5433 57.3889C35.4902 56.7303 35.5433 56.0718 35.5964 55.3474C35.4371 55.3474 35.2777 55.3474 35.1715 55.3474L34.5342 55.4791C34.481 55.4791 34.481 55.4791 34.4279 55.4791V55.4133V54.623C34.4279 54.3596 34.3748 54.0304 34.3217 53.6352C32.569 54.1621 30.9225 54.2279 29.1698 53.7669C27.2046 53.306 24.9739 52.2523 22.7962 50.7377C23.2211 49.4865 23.8054 48.367 24.6552 47.1816C24.9739 46.7865 25.2925 46.3914 25.6643 45.9304L26.2486 45.2719L25.4519 45.206C24.8676 45.1402 24.2303 45.0743 23.6991 44.9426C22.1058 44.6134 20.6717 44.2182 19.3439 43.5597C19.6095 41.3207 20.1937 39.4768 21.1497 38.028C21.9995 36.6451 23.2742 35.7232 25.027 34.9988C25.0801 34.9988 25.1332 34.9329 25.1863 34.9329C25.0801 34.8012 24.9739 34.7354 24.8676 34.6695L24.2834 34.2086C24.2303 34.2086 24.2303 34.1427 24.1772 34.1427C24.1772 34.1427 24.2303 34.1427 24.2303 34.0769L24.7614 33.7476C24.8145 33.6817 24.8676 33.6159 24.9739 33.6159C24.9207 33.6159 24.8676 33.55 24.8145 33.55C22.8493 32.2988 21.3091 30.9159 20.0875 29.3354C18.8128 27.6233 17.7505 25.6477 17.0069 23.4745C18.1223 23.3428 19.3439 23.3428 20.7779 23.5404C21.3091 23.6062 21.8402 23.6721 22.4244 23.8038L23.646 24.0672L22.69 23.0794C22.212 22.6184 21.8402 22.1574 21.4153 21.6965C20.4062 20.5111 19.6095 19.3916 18.9721 18.2721C20.5655 17.6794 22.2651 17.416 23.9116 17.5477C25.505 17.6794 27.1515 18.2063 29.0635 19.194C29.4353 19.3916 29.8071 19.5892 30.232 19.8526C30.232 19.5233 30.1789 19.2599 30.1258 19.0623L30.0727 18.8648C30.0196 18.7331 29.9133 18.5355 29.8602 18.4038C29.0104 16.5599 28.6386 15.0453 28.6386 13.6624C28.6386 12.2795 29.0104 10.8966 29.7009 9.7112C30.7631 10.4356 31.7723 11.2917 32.8877 12.2795C33.2594 12.6746 33.6844 13.0697 34.1093 13.4648L34.9059 14.3209L34.6935 13.0697C34.5873 12.6087 34.5342 12.1478 34.5342 11.7526C34.4279 10.699 34.4279 9.84291 34.5873 9.11852C36.2869 9.97461 37.8803 11.0283 39.2081 12.1478C40.4828 13.2673 41.5982 14.5843 42.6073 16.2307C42.8198 16.5599 42.9791 16.8892 43.1915 17.2185C43.3509 17.0868 43.5102 17.0209 43.6164 16.8892C43.6696 16.7575 43.7227 16.5599 43.7758 16.4282C44.1476 15.177 44.7318 14.3868 45.5816 13.9258C46.4314 13.4648 47.5999 13.2014 48.9808 13.2673C49.512 14.2551 49.99 15.3087 50.3087 16.4941C50.4149 16.8892 50.5742 17.2843 50.6804 17.7453L50.8398 18.4038L51.2647 17.9428C51.4771 17.7453 51.6896 17.5477 51.902 17.3502C52.4863 16.8233 53.1236 16.5599 53.8141 16.3624C54.8764 17.877 55.7262 19.3916 56.2573 20.7745C56.4697 21.2355 56.576 21.7623 56.7353 22.2233C57.054 22.0257 57.3727 21.8282 57.7444 21.5648C57.6382 21.1696 57.4789 20.7087 57.3195 20.3136C56.8415 18.9965 56.0448 17.6136 55.0888 16.1648C56.5229 16.2307 58.3287 16.7575 60.2939 17.6794C60.9843 18.0087 61.6217 18.2721 62.1528 18.4697L63.9586 16.6258H63.64L63.0557 16.5599C62.3653 16.4282 61.4092 16.0331 60.2939 15.5063C58.2756 14.5185 56.3635 13.9258 54.8232 13.8599C54.3983 13.8599 53.9734 13.8599 53.5485 13.9917C53.0705 13.3331 52.7518 12.7404 52.4332 12.2136L51.8489 11.7526L51.7427 11.5551V11.4892L51.6365 11.5551L51.1585 11.7526C50.8398 11.8185 50.4149 11.8844 49.8838 11.8844C49.5651 11.2917 49.2464 10.7649 48.8215 10.238C47.4937 8.39414 45.6878 6.41855 43.6164 4.70636C42.3949 3.71857 41.4388 2.73077 40.6952 1.94053L40.0579 1.1503L39.7392 0.689323L39.6861 0.557617L39.4736 1.08444L39.155 1.54541C38.8363 1.87468 38.252 2.2698 37.1367 2.66492C35.3308 3.2576 33.9499 4.3771 33.1001 5.76001C32.8877 6.08928 32.7283 6.4844 32.6221 6.87952C31.8254 6.4844 31.1349 6.08928 30.6038 5.69416L29.8602 5.03563L29.5947 4.83807L29.5416 4.77222V5.03563V5.10148L29.4884 5.76001C29.3822 6.15513 29.2229 6.6161 29.0104 7.07708C28.4262 6.74781 27.8951 6.41855 27.3108 6.08928C25.027 5.03563 22.4244 4.31125 19.7688 4.04783C18.2285 3.91613 16.8476 3.65271 15.6791 3.19174L14.6169 2.73077L13.7671 2.2698V2.33565L13.6077 2.2698L13.9795 3.19174C13.9795 3.19174 13.9795 3.2576 14.0326 3.2576L14.2982 4.17954C14.5106 5.23319 14.5106 6.41855 14.2982 7.73561C13.9264 10.3039 14.192 13.0039 15.0949 15.4404C15.3073 16.0331 15.5198 16.5599 15.8385 17.1526C15.0949 17.416 14.4044 17.5477 13.7139 17.6136H12.7579H12.333L12.5455 17.877C12.5986 17.877 12.5986 17.9428 12.5986 18.0087L13.1828 18.9306C13.5546 19.5892 13.9264 20.3794 14.2451 21.2355C13.6608 21.3672 13.1297 21.4989 12.5986 21.6965C10.3147 22.6184 8.24332 24.3306 6.54371 26.7013C5.58768 28.0842 4.57854 29.072 3.5694 29.7306L2.56025 30.3232C2.50714 30.3232 2.45403 30.3891 2.45403 30.3891L1.71045 30.8501L1.81667 30.9159L1.76356 30.9818L2.40092 31.3769C2.45403 31.3769 2.50714 31.4427 2.50714 31.4427L3.62251 32.3647C4.79099 33.4183 6.01259 34.8671 7.28729 36.6451C9.51803 39.8061 12.0674 42.5061 14.7762 44.2841C15.4667 44.7451 16.1571 45.1402 16.8476 45.5353C16.6883 46.5231 16.4758 47.445 16.2102 48.1694L15.7853 49.0914C15.7853 49.1572 15.7322 49.1572 15.7322 49.2231L15.626 49.4206H15.6791V49.4865L15.8385 49.5523C15.8916 49.5523 15.9447 49.5523 15.9447 49.5523L17.0069 49.8816C17.8036 50.2109 18.7065 50.6718 19.6626 51.3304C19.4501 52.0548 19.2908 52.7791 19.2377 53.5694C18.919 56.5986 19.397 60.2205 20.5655 64.04C21.256 66.2132 21.6277 68.0571 21.734 69.6376V71.0863C21.734 71.1522 21.734 71.218 21.734 71.218L21.6809 71.8107H21.734V71.8766L22.212 71.7448C22.2651 71.7448 22.3182 71.7448 22.3713 71.679L23.5929 71.4156C24.9739 71.2839 26.6735 71.4156 28.6386 71.8766C32.0379 72.6668 35.1184 72.6668 37.6678 71.8766C38.3052 71.679 38.8894 71.4156 39.4736 71.0863C40.1641 72.0741 40.6952 73.0619 41.067 73.918L41.4919 75.0375L41.5982 75.3668V75.4326L41.7044 75.3009L41.7575 75.2351L42.448 74.5765C42.9791 74.1814 43.6696 73.7863 44.4662 73.5229C44.838 74.3131 45.2629 75.0375 45.7941 75.696C47.5999 78.3302 49.99 80.635 52.805 82.5448C54.3452 83.5984 55.6199 84.6521 56.5229 85.7057L57.3195 86.7594C57.3727 86.8252 57.3727 86.8252 57.4258 86.8911L57.7976 87.4837V87.4179L57.8507 87.5496L58.01 86.7594C58.01 86.6935 58.01 86.6935 58.01 86.6276L58.3287 85.5081C58.7536 84.3228 59.4972 83.1374 60.4532 81.9521C62.1528 79.8448 63.3213 77.4082 63.8524 74.8399C63.9586 74.2473 64.0649 73.6546 64.118 73.0619C64.8616 73.2595 65.4989 73.5229 66.0832 73.8521L66.8267 74.379L67.1454 74.6424V74.5765H67.1985L67.1454 74.2473L67.0392 73.1278C67.0392 72.4692 67.0923 71.7449 67.1985 70.9546C67.6765 71.218 68.1546 71.3497 68.6857 71.5473C70.6509 72.14 72.7223 72.0083 74.6874 71.2839C75.6966 70.8888 76.5995 70.757 77.3962 70.8229L78.1398 70.9546H78.1929L78.9364 71.218L78.8833 71.0863H79.0427ZM66.2956 31.3769C66.4549 30.9818 66.5612 30.6525 66.6674 30.2574C67.0392 30.5208 67.3579 30.7842 67.6765 30.9818C67.6765 31.2452 67.6765 31.5744 67.6765 31.9037C67.2516 31.772 66.7736 31.5744 66.2956 31.3769ZM51.424 13.399C51.6365 13.7941 51.902 14.1892 52.1676 14.5843C51.8489 14.716 51.5834 14.9136 51.2647 15.1112C51.0522 14.5185 50.8398 13.9917 50.6273 13.399C50.946 13.4648 51.2116 13.399 51.424 13.399ZM34.9059 7.66975C35.5964 6.41855 36.818 5.43075 38.4645 4.83807C39.155 4.57466 39.7392 4.31125 40.2172 3.98198C40.8546 4.70636 41.6513 5.43075 42.6073 6.15513C44.6787 7.86731 46.4314 9.77705 47.7592 11.6209C47.8124 11.6868 47.8124 11.7526 47.8655 11.7526C46.5908 11.7526 45.5285 11.9502 44.6787 12.4112C43.7758 12.8722 43.1915 13.7282 42.7666 14.9136C41.7044 13.2014 40.6421 11.8844 39.3143 10.7649C38.0396 9.64535 36.4993 8.65755 34.8528 7.80146C34.8528 7.80146 34.8528 7.73561 34.9059 7.66975ZM30.8694 7.40634C31.2943 7.66975 31.8254 7.93317 32.3565 8.26243C32.3034 8.7234 32.3034 9.18438 32.3034 9.7112C31.7192 9.18438 31.1349 8.65755 30.5507 8.19658C30.6569 7.93317 30.7631 7.66975 30.8694 7.40634ZM16.9007 8.7234C17.0069 7.80146 17.06 6.94537 17.0069 6.08928C17.963 6.28684 18.9721 6.4844 20.0875 6.55025C22.69 6.74781 25.2394 7.4722 27.417 8.52585C27.5764 8.5917 27.7888 8.7234 27.9482 8.78926C27.2577 9.97461 26.8859 11.3575 26.8859 12.7404C26.8859 14.1234 27.2046 15.638 28.0013 17.4819C26.0892 16.4941 24.4427 15.9672 22.9025 15.8355C21.256 15.7038 19.5563 15.9672 17.963 16.4941C17.8567 16.2965 17.8036 16.099 17.6974 15.8355C16.8476 13.5965 16.582 11.0941 16.9007 8.7234ZM16.8476 19.194C17.2725 19.8526 17.8036 20.577 18.3348 21.2355C17.5381 21.1696 16.7945 21.1038 16.0509 21.1696C15.8385 20.577 15.626 20.0501 15.3604 19.5892C15.8385 19.5233 16.3165 19.3258 16.8476 19.194ZM16.6351 42.3744C14.0857 40.5963 11.5894 38.028 9.46492 34.9988C8.562 33.6817 7.65908 32.5622 6.75616 31.6403C7.49974 30.9818 8.19021 30.1257 8.88068 29.1379C10.4209 26.833 12.3861 25.1867 14.5106 24.3306C14.7231 24.2647 14.9355 24.1989 15.148 24.133C15.8916 26.3062 16.9538 28.3476 18.2816 29.994C19.5563 31.6403 21.0435 33.0232 23.0618 34.2744C21.256 34.9988 19.9813 35.9866 19.0783 37.3695C18.1754 38.7524 17.5381 40.6622 17.2194 42.7695C17.0069 42.5719 16.8476 42.5061 16.6351 42.3744ZM20.4062 49.4206C19.7688 49.0255 19.1314 48.6304 18.5472 48.3011C18.7065 47.7743 18.8128 47.1158 18.919 46.4572C19.7688 46.7865 20.7248 47.0499 21.6809 47.2475C21.1497 47.9719 20.7779 48.6963 20.4062 49.4206ZM37.2429 68.7156C34.8528 69.44 31.8785 69.3741 28.5855 68.6497C27.0984 68.3205 25.7174 68.1229 24.549 68.0571C24.3365 66.74 23.9647 65.2254 23.4867 63.5791C22.3182 59.9571 21.8402 56.5328 22.1058 53.6352C22.1058 53.4377 22.1589 53.2401 22.1589 53.0426C24.3365 54.4913 26.461 55.4791 28.4262 55.9401C30.1258 56.3352 31.7723 56.3352 33.4719 55.8084C33.6312 55.7425 33.7906 55.7425 34.003 55.6767C33.9499 56.1377 33.8968 56.5986 33.8968 57.0596C33.7906 58.8376 34.003 60.484 34.5342 62.1961C35.1715 64.3034 36.2338 66.4766 37.6678 68.6497C37.5085 68.5839 37.4022 68.6497 37.2429 68.7156ZM42.1293 72.0741C41.8106 71.4814 41.3857 70.8229 40.9608 70.0985C41.545 69.6376 42.0762 69.0449 42.6073 68.4522C42.8729 69.5058 43.1915 70.4936 43.5633 71.4156C43.0322 71.6131 42.5542 71.8107 42.1293 72.0741ZM61.9404 72.9961C61.4623 75.3668 60.2939 77.6716 58.6474 79.5814C57.9038 80.4375 57.3195 81.3594 56.8415 82.2155C55.9917 81.4253 55.0357 80.635 53.8672 79.8448C51.2116 78.0009 48.8746 75.7619 47.175 73.2595C47.0688 73.0619 46.9094 72.8643 46.8032 72.6668C48.5559 72.0083 50.0431 71.0863 51.1053 69.8351C52.1145 68.6497 52.805 67.201 53.1767 65.1595C54.4515 67.2668 55.7262 68.7156 57.1602 69.901C58.5943 71.0205 60.2408 71.8765 61.9935 72.3375C61.9935 72.6668 61.9404 72.7985 61.9404 72.9961ZM65.6051 71.5473C65.1802 71.3497 64.7022 71.1522 64.2242 71.0205C64.1711 70.2961 64.118 69.5058 64.0118 68.7156C64.596 69.2424 65.1802 69.7034 65.7645 70.0985C65.7114 70.6253 65.6583 71.0863 65.6051 71.5473ZM70.5446 44.4817C69.5886 43.1646 68.4732 42.1109 67.0392 41.1231C67.9952 40.5305 68.5795 39.6744 68.8981 38.6207C69.1637 37.6329 69.2699 36.4476 69.1637 35.0647C69.2168 35.0647 69.2168 35.1305 69.2699 35.1305C70.8102 36.3817 72.4567 38.2256 73.997 40.3329C74.6343 41.2548 75.2717 42.0451 75.8559 42.7036C75.6435 43.2304 75.431 43.889 75.3248 44.6792C75.0061 46.589 74.3156 48.0377 73.4127 48.9597C73.3596 49.0255 73.3065 49.0914 73.2003 49.1572C72.5098 47.445 71.5538 45.7987 70.5446 44.4817ZM72.138 52.2523C72.5629 52.1865 72.9347 52.1206 73.3065 52.0548C73.519 52.5157 73.7845 52.9767 73.997 53.4377C73.7845 53.5694 73.5721 53.7669 73.3596 53.9645C72.9878 53.306 72.5629 52.7791 72.138 52.2523ZM73.8907 68.518C72.0849 69.1766 70.1197 69.2424 68.2608 68.7156C68.1014 68.6497 67.889 68.5839 67.7297 68.518C68.0483 66.6742 68.1014 64.8303 67.8359 63.0522C67.6234 61.4059 67.0923 59.6937 66.1894 57.8498C67.7297 58.5084 68.9512 58.7059 70.0666 58.5084C71.1289 58.3108 72.138 57.784 72.9878 56.9279C73.0409 57.0596 73.1472 57.2572 73.2003 57.3889C74.2094 59.6279 74.8999 62.262 75.2717 64.962C75.431 66.0815 75.5903 67.1351 75.8559 68.0571C75.2717 68.1229 74.5812 68.2546 73.8907 68.518Z" fill="black"/>
</svg>