<svg width="124" height="125" viewBox="0 0 124 125" fill="none" xmlns="http://www.w3.org/2000/svg">
<path d="M77.9371 35.2524C77.7671 34.6884 77.512 34.1244 77.2569 33.5604C77.0868 33.1844 76.8317 32.7144 76.5767 32.3384C76.3216 31.8684 75.9815 31.3984 75.5563 30.8344C74.2809 29.1424 72.5803 27.6384 70.7947 26.4164C69.4342 25.4764 68.5839 24.6304 68.0737 24.1604V23.9724L67.6486 23.4085L67.5635 23.3145C67.5635 23.3145 67.5635 23.3145 67.5635 23.4085L67.2234 23.8785C67.1384 23.9724 67.0534 24.0664 66.8833 24.1604C66.7132 24.2544 66.4582 24.4424 66.2031 24.6304C65.948 24.7244 65.6079 24.9124 65.2677 25.0064H65.1827C63.7372 25.5704 62.4618 26.4164 61.6965 27.6384C61.0163 28.7664 60.9313 30.0824 61.1013 31.5864C60.4211 31.0224 59.7408 30.4584 58.9756 29.9884C58.3804 29.6124 57.8702 29.2364 57.275 28.9544C56.9349 28.7664 56.5948 28.5784 56.1696 28.4844C54.0439 27.6384 51.7481 27.1684 49.7074 27.1684C48.517 27.1684 47.4966 26.9804 46.7313 26.7924C46.4763 26.6984 46.3062 26.6984 46.0511 26.6044L45.1158 26.3224C45.0308 26.3224 45.0308 26.3224 45.0308 26.2284C45.0308 26.2284 45.0308 26.3224 45.1158 26.3224L45.2858 26.8864L45.3709 27.1684C45.4559 27.4504 45.4559 27.8264 45.5409 28.2964C45.5409 28.6724 45.5409 29.0484 45.5409 29.5184C45.5409 29.7064 45.5409 29.9884 45.4559 30.2704C45.2008 32.1504 45.3709 34.2184 46.2212 36.2864C46.9014 38.1664 48.1768 39.7644 49.6223 41.2684C47.6667 41.0804 45.796 41.1744 44.0954 41.8323C42.1398 42.6783 40.5242 44.0883 39.3338 45.8743C38.9937 46.3443 38.6536 46.8143 38.3134 47.1903C37.8883 47.5663 37.5482 47.9423 37.2081 48.2243C37.123 48.3183 36.953 48.4123 36.8679 48.4123L36.0176 48.8823H35.9326C35.9326 48.8823 36.0176 48.9763 36.1027 48.9763L37.038 49.6343C37.2081 49.7283 37.3781 49.9163 37.5482 50.0103C37.8033 50.2923 38.1434 50.5743 38.4835 50.8563C38.5685 50.9503 38.6536 51.0443 38.6536 51.0443C38.7386 51.1383 38.8236 51.2323 38.9086 51.3263C38.9937 51.4203 39.1637 51.6083 39.2488 51.7023C39.5038 52.0783 39.844 52.4543 40.1841 52.8303C40.3541 53.0183 40.5242 53.3003 40.7793 53.4883C42.3949 55.4623 44.2655 57.2483 46.3912 58.5643C48.4319 59.8802 50.4726 60.4442 52.5984 60.8202C51.408 62.2302 50.5577 63.8282 50.3876 65.9902C50.1325 68.4342 50.6427 71.1602 51.578 73.6982C52.0032 74.8262 52.2583 75.8602 52.4283 76.6122C52.5133 77.1762 52.5984 77.6462 52.5984 78.0222V79.1501C52.5984 79.2441 52.5984 79.2441 52.5984 79.2441C52.5984 79.2441 52.6834 79.2441 52.7684 79.2441L53.7888 79.0561C53.9588 79.0561 54.2139 79.0561 54.469 79.0561C55.3193 79.0561 56.5097 79.2441 58.0403 79.5261C58.5504 79.6201 59.0606 79.7141 59.5708 79.8081C61.6115 80.1841 63.7372 80.1841 65.5228 79.7141C67.4785 79.2441 68.839 78.2101 70.0294 76.8942C70.5396 78.9621 71.3899 81.0301 72.8354 82.9101C74.4509 85.0721 76.6617 86.9521 78.8724 88.2681C79.4677 88.6441 79.9778 89.0201 80.488 89.3961C80.7431 89.5841 80.9982 89.7721 81.1682 89.9601C81.5934 90.3361 81.9335 90.6181 82.1886 90.9001L82.9539 91.7461L83.0389 91.8401V91.7461L83.379 90.9001C83.379 90.8061 83.464 90.7121 83.5491 90.6181C83.7191 90.2421 83.9742 89.8661 84.3143 89.3961C84.6544 89.0201 84.9946 88.5501 85.5047 88.1741C86.9502 86.7641 88.1407 85.0721 88.7359 83.0041C89.246 81.2181 89.161 79.4321 88.7359 77.5522C90.2664 78.8681 91.8819 79.9021 93.6676 80.3721C95.6232 80.9361 97.4939 80.8421 99.1945 80.3721C99.3645 80.2781 99.5346 80.2781 99.7046 80.2781C100.045 80.1841 100.47 80.1841 100.725 80.0901C101.235 80.0901 101.575 80.0901 101.915 80.0901L102.681 80.2781H102.766C102.766 80.2781 102.766 80.1841 102.681 80.1841L102.596 79.9021L102.341 79.3381C102.256 79.0561 102.085 78.6801 102 78.2101C101.83 77.5522 101.66 76.8002 101.575 75.8602C101.32 73.7922 100.81 71.6302 99.7897 69.5622C99.6196 69.1862 99.3645 68.8102 99.1945 68.4342C98.7693 67.6822 98.1741 66.9302 97.6639 66.2722C97.3238 65.8022 96.9837 65.4262 96.5586 65.0502C97.919 65.0502 99.1945 64.7682 100.13 64.0162C101.235 63.0762 101.915 61.7602 102.256 60.2562C102.256 60.1623 102.256 60.0682 102.341 60.0682C102.426 59.6922 102.596 59.3163 102.681 59.0343C102.851 58.6583 103.021 58.3763 103.191 58.1883L103.531 57.8123C103.531 57.8123 103.531 57.8123 103.616 57.8123C103.616 57.8123 103.531 57.8123 103.531 57.7183L103.191 57.4363L102.851 57.1543C102.681 57.0603 102.511 56.8723 102.341 56.6843C101.83 56.2143 101.235 55.5563 100.555 54.7103C99.2795 53.1123 97.834 51.6083 96.3035 50.4803C95.9634 50.7623 95.6232 51.1383 95.3681 51.4203C96.8136 52.5483 98.2591 53.9583 99.4496 55.4623C100.045 56.2143 100.64 56.8723 101.065 57.2483C101.15 57.3423 101.235 57.4363 101.32 57.5303C101.065 57.9063 100.895 58.3763 100.64 59.1283C100.64 59.2223 100.64 59.2223 100.555 59.3163C100.215 60.8202 99.5346 62.1362 98.4292 62.9822C97.4939 63.7342 96.3035 64.0162 95.028 64.0162C94.6879 64.0162 94.3478 64.0162 94.0077 64.0162C94.3478 64.2982 94.6879 64.6742 94.943 64.9562C96.1334 66.2722 97.1538 67.5882 98.0041 69.2802C98.9394 71.2542 99.4496 73.4162 99.7046 75.4842C99.7897 76.2362 99.8747 76.8942 100.045 77.4581C100.13 77.8341 100.215 78.1161 100.3 78.3981C99.7897 78.3981 99.1945 78.3981 98.4292 78.5861C98.2591 78.5861 98.1741 78.6801 98.0041 78.6801C96.3885 79.1501 94.5179 79.1501 92.6472 78.6801C91.0316 78.2101 89.5011 77.2702 88.0556 76.0482C87.7155 75.7662 87.2904 75.3902 86.9502 75.1082C87.0353 75.5782 87.1203 76.0482 87.2053 76.5182C87.5454 78.3041 87.5454 79.9961 87.1203 81.6881C86.5251 83.6621 85.4197 85.3541 83.9742 86.7641C83.6341 87.1401 83.294 87.4221 83.0389 87.7981C82.6988 88.1741 82.4437 88.5501 82.1886 88.9261C82.1036 88.8321 82.0185 88.8321 81.9335 88.7381C81.8485 88.6441 81.6784 88.5501 81.5084 88.4561C81.2533 88.2681 80.9982 88.0801 80.7431 87.8921C80.318 87.6101 79.8928 87.2341 79.3826 86.9521C77.2569 85.6361 75.1312 83.8501 73.5156 81.6881C72.1551 79.9021 71.3899 78.0221 70.7947 76.0482C70.6246 75.5782 70.5396 75.1082 70.4545 74.5442C70.1995 74.9202 69.9444 75.2022 69.6043 75.4842C68.4989 76.7062 67.1384 77.6462 65.3528 78.0222C64.4175 78.2102 63.3971 78.3041 62.3768 78.3041C60.9313 78.3041 59.4858 78.1161 58.0403 77.7402C56.9349 77.4582 55.9996 77.3642 55.2343 77.2702C55.0642 77.2702 54.8942 77.2702 54.7241 77.2702H54.6391C54.6391 76.9882 54.554 76.7062 54.469 76.4242C54.299 75.6722 54.0439 74.8262 53.7038 73.7922C53.3636 72.9462 53.1086 72.0062 52.9385 71.1602C52.5984 69.7502 52.4283 68.2462 52.5133 66.9302C52.5133 66.7422 52.5133 66.4602 52.5133 66.2722C52.6834 64.2982 53.4487 62.7942 54.469 61.4782C54.7241 61.1022 54.9792 60.8202 55.3193 60.5382C54.8091 60.4442 54.299 60.4442 53.8738 60.3502C53.7038 60.3502 53.5337 60.2562 53.3636 60.2562C51.8331 59.9743 50.3876 59.5042 48.8571 58.6583C48.602 58.5643 48.3469 58.3763 48.0918 58.1883C46.7313 57.3423 45.4559 56.3083 44.3505 55.0863C43.5853 54.2403 42.82 53.3943 42.1398 52.5483C41.8847 52.2663 41.6296 51.8903 41.3745 51.6083C41.1194 51.2323 40.8643 50.9503 40.6092 50.6683C40.2691 50.2923 39.929 50.0103 39.6739 49.7283C39.6739 49.7283 39.6739 49.7283 39.7589 49.6343C40.0991 49.3523 40.4392 48.9763 40.7793 48.6003C41.0344 48.3183 41.2895 47.9423 41.5446 47.5663C42.735 45.8743 44.2655 44.4643 46.1361 43.6183C47.7517 42.9603 49.4523 42.8663 51.3229 42.9603C51.7481 42.9603 52.2583 43.0543 52.6834 43.1483C52.3433 42.7723 51.9181 42.3963 51.578 42.0203C50.2176 40.6104 49.1122 39.1064 48.4319 37.3204C47.6667 35.2524 47.4966 33.2784 47.6667 31.3984C47.6667 31.2104 47.6667 31.0224 47.7517 30.8344C47.8367 30.0824 47.7517 29.4244 47.6667 28.9544C47.8367 28.9544 47.9218 29.0484 48.0918 29.0484C48.7721 29.1424 49.6223 29.2364 50.6427 29.3304C52.6834 29.4244 54.8942 29.8004 57.0199 30.6464C58.8055 31.3984 60.336 32.4324 61.6965 33.5604C62.0366 33.8424 62.3767 34.2184 62.7169 34.5004C62.6318 34.1244 62.6318 33.7484 62.5468 33.3724C62.3768 31.9624 62.5468 30.7404 63.142 29.7064C63.9073 28.4844 65.0977 27.6384 66.5432 27.0744C66.5432 27.0744 66.5432 27.0744 66.6282 27.0744C67.1384 26.8864 67.4785 26.6984 67.8186 26.5104C67.9887 26.4164 68.1588 26.3224 68.3288 26.1344C68.839 26.6044 69.6042 27.2624 70.6246 28.0144C72.3252 29.2364 74.0258 30.7404 75.3012 32.4324C76.4066 33.8424 77.0868 35.1584 77.512 36.5684C77.597 36.9444 77.682 37.2264 77.8521 37.6024C77.9371 37.6024 77.9371 37.5084 78.0222 37.5084C78.1922 37.3204 78.3623 37.2264 78.5323 37.0384C79.2126 36.4744 79.9778 36.0984 80.9982 36.0044C81.9335 35.5344 82.8688 35.0644 83.7191 34.5944C83.0389 34.4064 82.2736 34.3124 81.6784 34.4064C79.8078 34.0304 78.7874 34.5004 77.9371 35.2524Z" fill="#A82021"/>
<path d="M123.852 101.334L123.257 100.206L122.492 98.5141C121.897 96.8221 121.386 94.8481 121.046 92.4981C120.451 88.4562 119.261 84.6022 117.645 81.3122C117.22 80.4662 116.795 79.7142 116.285 78.9622C116.795 78.4922 117.39 78.1162 117.9 77.9282L118.666 77.7402L119.176 77.6462L119.091 77.5522L118.836 77.2702L117.9 76.1422C117.39 75.3902 116.795 74.4502 116.285 73.4162C116.795 73.1342 117.22 72.8522 117.645 72.4762C119.261 70.9723 120.451 68.6223 121.046 65.6143C121.386 63.7343 121.897 62.7943 122.237 62.2303L122.747 61.6663L123.427 61.1023L123.342 61.0083V60.9143L122.747 60.5383L121.557 59.5983C120.366 58.5643 119.091 57.1543 117.73 55.4623C115.264 52.3604 112.543 49.7284 109.993 47.8484C109.227 47.2844 108.547 46.8144 107.782 46.4384C107.697 45.5924 107.697 44.8404 107.782 44.2764L107.952 43.5244L108.037 43.2424L106.761 42.7724C106.166 42.4904 105.571 42.1144 104.891 41.6444C103.275 43.3364 101.575 44.9344 99.9591 46.5324C100.554 46.6264 101.149 46.8144 101.66 46.9084C103.19 47.2844 104.636 47.8484 105.996 48.6004C106.251 50.7624 106.081 52.6424 105.571 54.0523C105.061 55.4623 104.211 56.4963 102.85 57.3423L103.19 57.6243C103.19 57.6243 103.275 57.6243 103.275 57.7183C103.275 57.7183 103.275 57.7183 103.19 57.7183L102.85 58.0943C102.68 58.2823 102.51 58.5643 102.34 58.9403C102.51 59.0343 102.765 59.2223 102.935 59.3163C105.146 60.7263 106.931 62.2303 108.547 64.0163C110.163 65.8963 111.693 68.2463 113.054 70.8783C112.118 71.2542 111.013 71.4423 109.652 71.4423C109.142 71.4423 108.547 71.4422 107.952 71.3482L106.251 71.2543L107.527 72.4762C108.122 73.0402 108.632 73.6042 109.227 74.1682C110.588 75.6722 111.778 77.0822 112.799 78.5862C111.438 79.8082 109.822 80.6542 108.122 80.8422C106.421 81.1242 104.551 80.8422 102.255 79.9962L102.34 80.2782C102.34 80.2782 102.34 80.3722 102.425 80.3722H102.34L101.575 80.1842C101.235 80.1842 100.809 80.1842 100.384 80.1842C100.554 80.5602 100.809 80.8422 100.979 81.2182C102.51 83.9442 103.36 86.3882 103.7 88.7382C104.04 91.2761 103.955 93.9081 103.445 96.5401C101.915 95.7881 100.384 94.7541 98.6836 93.3441C98.0884 92.8741 97.4082 92.3101 96.728 91.6521L95.3675 90.3362L95.8777 92.3101C96.1327 93.1561 96.3028 94.0021 96.4729 94.7541C96.898 96.8221 97.0681 98.7021 96.983 100.394C94.1771 99.6421 91.5412 98.4201 89.2454 96.8221C87.1196 95.3181 85.164 93.3441 83.3783 90.7121C83.2933 90.8061 83.2933 90.9001 83.2083 90.9941L82.8682 91.8401V91.9341L82.7831 91.8401L82.0179 90.9941C81.7628 90.7121 81.4227 90.4301 80.9975 90.0541V90.1481C80.4023 92.9681 79.2969 95.0361 77.7664 96.6341C75.9808 98.4201 73.6 99.7361 70.6239 100.582C69.5186 98.6081 68.6683 96.4461 67.988 93.9081C67.7329 93.0621 67.5629 92.1221 67.3078 91.1821L67.0527 89.9601L66.2874 90.9001C65.7773 91.5581 65.3521 92.1221 64.8419 92.6861C63.4815 94.2841 61.9509 95.4121 60.4204 96.2581C58.0396 93.1561 56.254 89.9601 55.2336 86.8582C54.6384 85.1662 54.2983 83.4742 54.2133 81.7822C54.1282 80.8422 54.2133 79.9022 54.2983 78.8682C54.0432 78.8682 53.7881 78.8682 53.6181 78.8682L52.5977 79.0562C52.5127 79.0562 52.5127 79.0562 52.4277 79.0562V78.9622V77.8342C52.4277 77.4582 52.3426 76.9882 52.2576 76.4242C49.4516 77.1762 46.8157 77.2702 44.0097 76.6122C40.8637 75.9542 37.2924 74.4502 33.8062 72.2882C34.4865 70.5023 35.4218 68.9043 36.7822 67.2123C37.2924 66.6483 37.8026 66.0843 38.3978 65.4263L39.3331 64.4863L38.0577 64.3923C37.1224 64.2983 36.102 64.2043 35.2517 64.0163C32.7008 63.5463 30.405 62.9823 28.2793 62.0423C28.7045 58.8463 29.6398 56.2143 31.1703 54.1463C32.5308 52.1724 34.5715 50.8564 37.3775 49.8224C37.4625 49.8224 37.5475 49.7284 37.6325 49.7284C37.4625 49.5404 37.2924 49.4464 37.1224 49.3524L36.187 48.6944C36.102 48.6944 36.102 48.6004 36.017 48.6004C36.017 48.6004 36.102 48.6004 36.102 48.5064L36.9523 48.0364C37.0373 47.9424 37.1224 47.8484 37.2924 47.8484C37.2074 47.8484 37.1224 47.7544 37.0373 47.7544C33.8912 45.9684 31.4254 43.9944 29.4697 41.7384C27.429 39.2944 25.7284 36.4744 24.538 33.3725C26.3236 33.1845 28.2793 33.1845 30.5751 33.4665C31.4254 33.5605 32.2757 33.6545 33.211 33.8425L35.1667 34.2185L33.6362 32.8085C32.8709 32.1505 32.2757 31.4925 31.5955 30.8345C29.9799 29.1425 28.7045 27.5445 27.6841 25.9465C30.235 25.1005 32.9559 24.7245 35.5918 24.9125C38.1427 25.1005 40.7786 25.8525 43.8397 27.2625C44.4349 27.5445 45.0301 27.8265 45.7103 28.2025C45.7103 27.7325 45.6253 27.3565 45.5403 27.0745L45.4552 26.7925C45.3702 26.6045 45.2002 26.3225 45.1151 26.1345C43.7547 23.5025 43.1595 21.3405 43.1595 19.3665C43.1595 17.3926 43.7547 15.4186 44.86 13.7266C46.5606 14.7606 48.1762 15.9826 49.9618 17.3926C50.557 17.9565 51.2372 18.5205 51.9175 19.0845L53.1929 20.3065L52.8528 18.5205C52.6827 17.8625 52.5977 17.2046 52.5977 16.6406C52.4277 15.1366 52.4277 13.9146 52.6827 12.8806C55.4037 14.1026 57.9546 15.6066 60.0803 17.2046C62.121 18.8025 63.9066 20.6825 65.5222 23.0325C65.8623 23.5025 66.1174 23.9725 66.4575 24.4425C66.7126 24.2545 66.9677 24.1605 67.1377 23.9725C67.2228 23.7845 67.3078 23.5025 67.3928 23.3145C67.988 21.5285 68.9234 20.4005 70.2838 19.7425C71.6443 19.0845 73.5149 18.7085 75.7257 18.8025C76.576 20.2125 77.3413 21.7165 77.8514 23.4085C78.0215 23.9725 78.2766 24.5365 78.4466 25.1945L78.7017 26.1345L79.382 25.4765C79.7221 25.1945 80.0622 24.9125 80.4023 24.6305C81.3376 23.8785 82.358 23.5025 83.4634 23.2205C85.164 25.3825 86.5244 27.5445 87.3747 29.5185C87.7148 30.1765 87.8849 30.9285 88.14 31.5865C88.6502 31.3045 89.1603 31.0225 89.7555 30.6465C89.5855 30.0825 89.3304 29.4245 89.0753 28.8605C88.31 26.9805 87.0346 25.0065 85.5041 22.9385C87.7999 23.0325 90.6909 23.7845 93.837 25.1005C94.9423 25.5705 95.9627 25.9465 96.813 26.2285L99.704 23.5965H99.1938L98.2585 23.5025C97.1531 23.3145 95.6226 22.7505 93.837 21.9985C90.6058 20.5885 87.5448 19.7425 85.0789 19.6485C84.3987 19.6485 83.7185 19.6485 83.0382 19.8365C82.273 18.8965 81.7628 18.0505 81.2526 17.2986L80.3173 16.6406L80.1472 16.3586V16.2646L79.9772 16.3586L79.2119 16.6406C78.7017 16.7346 78.0215 16.8286 77.1712 16.8286C76.661 15.9826 76.1508 15.2306 75.4706 14.4786C73.3449 11.8466 70.4539 9.0266 67.1377 6.58261C65.1821 5.17262 63.6515 3.76263 62.4611 2.63463L61.4408 1.50664L60.9306 0.848643L60.8456 0.660645L60.5054 1.41264L59.9953 2.07064C59.4851 2.54063 58.5498 3.10463 56.7641 3.66863C53.8731 4.51462 51.6624 6.11261 50.3019 8.0866C49.9618 8.5566 49.7067 9.1206 49.5367 9.68459C48.2612 9.1206 47.1558 8.5566 46.3055 7.9926L45.1151 7.05261L44.69 6.77061L44.6049 6.67661V7.05261V7.14661L44.5199 8.0866C44.3499 8.6506 44.0948 9.3086 43.7547 9.96659C42.8193 9.49659 41.969 9.0266 41.0337 8.5566C37.3775 7.05261 33.211 6.01861 28.9595 5.64262C26.4937 5.45462 24.2829 5.07862 22.4123 4.42062L20.7117 3.76263L19.3512 3.10463V3.19863L19.0961 3.10463L19.6913 4.42062C19.6913 4.42062 19.6913 4.51462 19.7764 4.51462L20.2015 5.83062C20.5416 7.33461 20.5416 9.0266 20.2015 10.9066C19.6063 14.5726 20.0315 18.4265 21.477 21.9045C21.8171 22.7505 22.1572 23.5025 22.6674 24.3485C21.477 24.7245 20.3716 24.9125 19.2662 25.0065H17.7357H17.0554L17.3956 25.3825C17.4806 25.3825 17.4806 25.4765 17.4806 25.5705L18.4159 26.8865C19.0111 27.8265 19.6063 28.9545 20.1165 30.1765C19.1812 30.3645 18.3309 30.5525 17.4806 30.8345C13.8243 32.1505 10.5082 34.5945 7.78723 37.9784C6.2567 39.9524 4.64115 41.3624 3.02559 42.3024L1.41003 43.1484C1.325 43.1484 1.23997 43.2424 1.23997 43.2424L0.0495605 43.9004L0.219619 43.9944L0.13459 44.0884L1.15494 44.6524C1.23997 44.6524 1.325 44.7464 1.325 44.7464L3.11062 46.0624C4.98126 47.5664 6.93694 49.6344 8.97764 52.1724C12.5489 56.6843 16.6303 60.5383 20.9668 63.0763C22.0722 63.7343 23.1775 64.2983 24.2829 64.8623C24.0278 66.2723 23.6877 67.5883 23.2626 68.6223L22.5823 69.9383C22.5823 70.0323 22.4973 70.0323 22.4973 70.1263L22.3273 70.4083H22.4123V70.5023L22.6674 70.5963C22.7524 70.5963 22.8374 70.5963 22.8374 70.5963L24.538 71.0663C25.8135 71.5363 27.259 72.1942 28.7895 73.1342C28.4494 74.1682 28.1943 75.2022 28.1093 76.3302C27.5991 80.6542 28.3643 85.8242 30.235 91.2761C31.3404 94.3781 31.9356 97.0101 32.1056 99.2661V101.334C32.1056 101.428 32.1056 101.522 32.1056 101.522L32.0206 102.368H32.1056V102.462L32.8709 102.274C32.9559 102.274 33.041 102.274 33.126 102.18L35.0817 101.804C37.2924 101.616 40.0134 101.804 43.1595 102.462C48.6013 103.59 53.533 103.59 57.6144 102.462C58.6348 102.18 59.5701 101.804 60.5054 101.334C61.6108 102.744 62.4611 104.154 63.0563 105.376L63.7366 106.974L63.9066 107.444V107.538L64.0767 107.35L64.1617 107.256L65.2671 106.316C66.1174 105.752 67.2228 105.188 68.4982 104.812C69.0934 105.94 69.7736 106.974 70.6239 107.914C73.5149 111.674 77.3413 114.964 81.8478 117.69C84.3137 119.194 86.3544 120.698 87.7999 122.202L89.0753 123.706C89.1603 123.8 89.1603 123.8 89.2454 123.894L89.8406 124.74V124.646L89.9256 124.834L90.1807 123.706C90.1807 123.612 90.1807 123.612 90.1807 123.518L90.6909 121.92C91.3711 120.228 92.5615 118.536 94.092 116.844C96.813 113.836 98.6836 110.358 99.5339 106.692C99.704 105.846 99.874 105 99.9591 104.154C101.149 104.436 102.17 104.812 103.105 105.282L104.296 106.034L104.806 106.41V106.316H104.891L104.806 105.846L104.636 104.248C104.636 103.308 104.721 102.274 104.891 101.146C105.656 101.522 106.421 101.71 107.272 101.992C110.418 102.838 113.734 102.65 116.88 101.616C118.495 101.052 119.941 100.864 121.216 100.958L122.407 101.146H122.492L123.682 101.522L123.597 101.334H123.852ZM103.445 44.6524C103.7 44.0884 103.87 43.6184 104.04 43.0544C104.636 43.4304 105.146 43.8064 105.656 44.0884C105.656 44.4644 105.656 44.9344 105.656 45.4044C104.976 45.2164 104.211 44.9344 103.445 44.6524ZM79.637 18.9905C79.9772 19.5545 80.4023 20.1185 80.8275 20.6825C80.3173 20.8705 79.8921 21.1525 79.382 21.4345C79.0419 20.5885 78.7017 19.8365 78.3616 18.9905C78.8718 19.0845 79.2969 18.9905 79.637 18.9905ZM53.1929 10.8126C54.2983 9.0266 56.254 7.61661 58.8899 6.77061C59.9953 6.39461 60.9306 6.01861 61.6959 5.54862C62.7162 6.58261 63.9916 7.61661 65.5222 8.6506C68.8383 11.0946 71.6443 13.8206 73.77 16.4526C73.855 16.5466 73.8551 16.6406 73.9401 16.6406C71.8994 16.6406 70.1988 16.9226 68.8383 17.5806C67.3928 18.2385 66.4575 19.4605 65.7773 21.1525C64.0767 18.7085 62.3761 16.8286 60.2504 15.2306C58.2097 13.6326 55.7438 12.2226 53.1079 11.0006C53.1079 11.0006 53.1079 10.9066 53.1929 10.8126ZM46.7307 10.4366C47.4109 10.8126 48.2612 11.1886 49.1115 11.6586C49.0265 12.3166 49.0265 12.9746 49.0265 13.7266C48.0912 12.9746 47.1558 12.2226 46.2205 11.5646C46.3906 11.1886 46.5606 10.8126 46.7307 10.4366ZM24.368 12.3166C24.538 11.0006 24.623 9.77859 24.538 8.5566C26.0685 8.8386 27.6841 9.1206 29.4697 9.2146C33.6362 9.4966 37.7176 10.5306 41.2038 12.0346C41.4589 12.1286 41.799 12.3166 42.0541 12.4106C40.9487 14.1026 40.3535 16.0766 40.3535 18.0505C40.3535 20.0245 40.8637 22.1865 42.1391 24.8185C39.078 23.4085 36.4421 22.6565 33.9763 22.4685C31.3404 22.2805 28.6194 22.6565 26.0685 23.4085C25.8985 23.1265 25.8135 22.8445 25.6434 22.4685C24.2829 19.2725 23.8578 15.7006 24.368 12.3166ZM24.2829 27.2625C24.9632 28.2025 25.8135 29.2365 26.6638 30.1765C25.3883 30.0825 24.1979 29.9885 23.0075 30.0825C22.6674 29.2365 22.3273 28.4845 21.9021 27.8265C22.6674 27.7325 23.4326 27.4505 24.2829 27.2625ZM23.9428 60.3503C19.8614 57.8123 15.865 54.1463 12.4638 49.8224C11.0184 47.9424 9.57285 46.3444 8.12735 45.0284C9.31776 44.0884 10.4231 42.8664 11.5285 41.4564C13.9944 38.1664 17.1405 35.8164 20.5416 34.5945C20.8818 34.5005 21.2219 34.4065 21.562 34.3125C22.7524 37.4144 24.453 40.3284 26.5787 42.6784C28.6194 45.0284 31.0003 47.0024 34.2314 48.7884C31.3404 49.8224 29.2997 51.2324 27.8542 53.2064C26.4087 55.1803 25.3883 57.9063 24.8781 60.9143C24.538 60.6323 24.2829 60.5383 23.9428 60.3503ZM29.9799 70.4083C28.9595 69.8443 27.9392 69.2803 27.0039 68.8103C27.259 68.0583 27.429 67.1183 27.5991 66.1783C28.9595 66.6483 30.4901 67.0243 32.0206 67.3063C31.1703 68.3403 30.5751 69.3743 29.9799 70.4083ZM56.9342 97.9501C53.1079 98.9841 48.3462 98.8901 43.0744 97.8561C40.6936 97.3861 38.4828 97.1041 36.6122 97.0101C36.2721 95.1301 35.6769 92.9681 34.9116 90.6181C33.041 85.4482 32.2757 80.5602 32.7008 76.4242C32.7008 76.1422 32.7859 75.8602 32.7859 75.5782C36.2721 77.6462 39.6732 79.0562 42.8193 79.7142C45.5403 80.2782 48.1762 80.2782 50.8971 79.5262C51.1522 79.4322 51.4073 79.4322 51.7474 79.3382C51.6624 79.9962 51.5774 80.6542 51.5774 81.3122C51.4073 83.8502 51.7474 86.2002 52.5977 88.6442C53.6181 91.6521 55.3186 94.7541 57.6144 97.8561C57.3594 97.7621 57.1893 97.8561 56.9342 97.9501ZM64.7569 102.744C64.2467 101.898 63.5665 100.958 62.8863 99.9241C63.8216 99.2661 64.6719 98.4201 65.5222 97.5741C65.9473 99.0781 66.4575 100.488 67.0527 101.804C66.2024 102.086 65.4371 102.368 64.7569 102.744ZM96.4729 104.06C95.7076 107.444 93.837 110.734 91.201 113.46C90.0106 114.682 89.0753 115.998 88.3101 117.22C86.9496 116.092 85.419 114.964 83.5484 113.836C79.2969 111.204 75.5556 108.008 72.8347 104.436C72.6646 104.154 72.4096 103.872 72.2395 103.59C75.0455 102.65 77.4263 101.334 79.1269 99.5481C80.7424 97.8561 81.8478 95.7881 82.443 92.8741C84.4837 95.8821 86.5244 97.9501 88.8202 99.6421C91.116 101.24 93.7519 102.462 96.5579 103.12C96.5579 103.59 96.4729 103.778 96.4729 104.06ZM102.34 101.992C101.66 101.71 100.894 101.428 100.129 101.24C100.044 100.206 99.9591 99.0781 99.789 97.9501C100.724 98.7021 101.66 99.3601 102.595 99.9241C102.51 100.676 102.425 101.334 102.34 101.992ZM110.248 63.3583C108.717 61.4783 106.931 59.9743 104.636 58.5643C106.166 57.7183 107.102 56.4963 107.612 54.9923C108.037 53.5823 108.207 51.8904 108.037 49.9164C108.122 49.9164 108.122 50.0104 108.207 50.0104C110.673 51.7964 113.309 54.4283 115.775 57.4363C116.795 58.7523 117.815 59.8803 118.751 60.8203C118.41 61.5723 118.07 62.5123 117.9 63.6403C117.39 66.3663 116.285 68.4343 114.839 69.7503C114.754 69.8443 114.669 69.9383 114.499 70.0323C113.394 67.5883 111.863 65.2383 110.248 63.3583ZM112.799 74.4502C113.479 74.3562 114.074 74.2622 114.669 74.1682C115.009 74.8262 115.434 75.4842 115.775 76.1422C115.434 76.3302 115.094 76.6122 114.754 76.8942C114.159 75.9542 113.479 75.2022 112.799 74.4502ZM115.604 97.6681C112.713 98.6081 109.567 98.7021 106.591 97.9501C106.336 97.8561 105.996 97.7621 105.741 97.6681C106.251 95.0361 106.336 92.4041 105.911 89.8662C105.571 87.5162 104.721 85.0722 103.275 82.4402C105.741 83.3802 107.697 83.6622 109.482 83.3802C111.183 83.0982 112.799 82.3462 114.159 81.1242C114.244 81.3122 114.414 81.5942 114.499 81.7822C116.115 84.9782 117.22 88.7382 117.815 92.5921C118.07 94.1901 118.325 95.6941 118.751 97.0101C117.815 97.1041 116.71 97.2921 115.604 97.6681Z" fill="black"/>
</svg>
