<svg width="18" height="16" viewBox="0 0 18 16" fill="none" xmlns="http://www.w3.org/2000/svg">
<g clip-path="url(#clip0_19_395)">
<path d="M13.7616 13.6607C13.7396 13.6607 13.7172 13.6585 13.6953 13.6544C13.6738 13.6503 13.6525 13.6444 13.6319 13.6366C13.6115 13.6288 13.592 13.6192 13.5737 13.6078C13.5551 13.5963 13.5378 13.5835 13.5221 13.5688C13.5067 13.5545 13.4924 13.5385 13.4802 13.5216C13.4677 13.5044 13.4575 13.4862 13.449 13.4676C13.4406 13.4488 13.4338 13.4291 13.4294 13.4091C13.4251 13.3888 13.4231 13.3684 13.4231 13.3478C13.4231 13.3275 13.4251 13.3069 13.4294 13.2869C13.4338 13.2669 13.4403 13.2472 13.4488 13.2284C13.4572 13.2094 13.4677 13.1913 13.4798 13.1745C13.4924 13.1573 13.5067 13.1413 13.5221 13.1269C13.5378 13.1126 13.5551 13.0994 13.5737 13.0882C13.592 13.0769 13.6115 13.0672 13.6319 13.0594C13.6525 13.0515 13.6738 13.0457 13.6953 13.0417C13.7393 13.0335 13.7839 13.0335 13.8276 13.0417C13.8493 13.0457 13.8706 13.0515 13.8908 13.0594C13.9115 13.0672 13.9312 13.0769 13.9494 13.0882C13.9681 13.0994 13.9853 13.1126 14.0009 13.1269C14.0165 13.1413 14.0308 13.1573 14.0429 13.1745C14.0551 13.1913 14.0655 13.2094 14.074 13.2284C14.0825 13.2472 14.0889 13.2669 14.0933 13.2869C14.0977 13.3069 14.1 13.3275 14.1 13.3478C14.1 13.3684 14.0977 13.3888 14.0933 13.4091C14.0889 13.4291 14.0825 13.4488 14.074 13.4676C14.0655 13.4862 14.0551 13.5044 14.0429 13.5216C14.0308 13.5385 14.0165 13.5545 14.0009 13.5688C13.9853 13.5835 13.9681 13.5963 13.9494 13.6078C13.9312 13.619 13.9115 13.6288 13.8908 13.6366C13.8706 13.6444 13.8493 13.6504 13.8276 13.6544C13.8059 13.6585 13.7836 13.6607 13.7616 13.6607Z" fill="#CAA356"/>
<path d="M9.04001 9.99817H8.0999C7.99847 9.99817 7.90233 9.95618 7.83806 9.88367C7.77379 9.81128 7.748 9.71594 7.76797 9.62415L8.08442 8.16772H6.64139L6.1714 8.52917C6.11057 8.57605 6.03387 8.60156 5.95479 8.60156H5.01454C4.90227 8.60156 4.79726 8.55017 4.73432 8.46436C4.67124 8.37842 4.65854 8.26941 4.7002 8.1731L5.12007 7.20435L4.7002 6.2356C4.65854 6.13928 4.67124 6.03027 4.73432 5.94434C4.79726 5.85852 4.90227 5.80701 5.01454 5.80701H5.95479C6.03387 5.80701 6.11057 5.83264 6.1714 5.87952L6.64139 6.24097H8.08442L7.76797 4.78455C7.748 4.69263 7.77379 4.59741 7.83806 4.52502C7.90233 4.45251 7.99847 4.41052 8.0999 4.41052H9.04001C9.15744 4.41052 9.26654 4.46667 9.32817 4.55896L10.4525 6.24097H11.6255C12.201 6.24097 12.6692 6.6731 12.6692 7.20435C12.6692 7.7356 12.201 8.16772 11.6255 8.16772H10.4525L9.32817 9.84973C9.26654 9.94202 9.15744 9.99817 9.04001 9.99817ZM8.51316 9.37317H8.85117L9.9755 7.69116C10.0371 7.59888 10.1462 7.54272 10.2637 7.54272H11.6255C11.8277 7.54272 11.9921 7.39099 11.9921 7.20435C11.9921 7.0177 11.8277 6.86597 11.6255 6.86597H10.2637C10.1462 6.86597 10.0373 6.80981 9.9755 6.71753L8.85117 5.03552H8.51316L8.82961 6.49194C8.84958 6.58386 8.82379 6.67908 8.75952 6.75159C8.69525 6.82397 8.59911 6.86597 8.49768 6.86597H6.51893C6.43972 6.86597 6.36302 6.84033 6.30219 6.79358L5.8322 6.43201H5.51468L5.799 7.08826C5.83127 7.16284 5.83127 7.24597 5.799 7.32043L5.51468 7.97668H5.8322L6.30219 7.61523C6.36302 7.56836 6.43972 7.54272 6.51893 7.54272H8.49768C8.59911 7.54272 8.69525 7.58484 8.75952 7.65723C8.82379 7.72961 8.84958 7.82495 8.82961 7.91675L8.51316 9.37317Z" fill="#CAA356"/>
<path d="M12.2684 13.489H5.0756C4.88874 13.489 4.73706 13.3491 4.73706 13.1765V11.2548C4.73706 11.0822 4.88874 10.9423 5.0756 10.9423H12.2684C12.4554 10.9423 12.607 11.0822 12.607 11.2548V13.1765C12.607 13.3491 12.4554 13.489 12.2684 13.489ZM5.41414 12.864H11.9299V11.5673H5.41414V12.864Z" fill="#CAA356"/>
<path d="M15.4558 0.625366H14.1007V0.3125C14.1007 0.139893 13.949 0 13.7621 0H2.85023C2.11866 0 1.52344 0.549316 1.52344 1.22461V14.7753C1.52344 15.4506 2.11853 16 2.8501 16H15.4558C15.6427 16 15.7943 15.8601 15.7943 15.6875V0.937866C15.7943 0.765259 15.6427 0.625366 15.4558 0.625366ZM13.4234 0.625V4.38647L12.4694 3.97131C12.3781 3.93152 12.2723 3.93152 12.1809 3.97119L11.2242 4.38684V0.625H13.4234ZM15.1172 15.375H3.92113V2.69727C3.92113 2.52466 3.76958 2.38477 3.58259 2.38477C3.3956 2.38477 3.24405 2.52466 3.24405 2.69727V15.375H2.85023C2.49198 15.375 2.20052 15.106 2.20052 14.7753V1.22461C2.20052 0.894043 2.49198 0.625 2.85023 0.625H10.5472V4.87939C10.5472 4.98633 10.6065 5.08582 10.7044 5.14319C10.7594 5.17542 10.8225 5.19189 10.8858 5.19189C10.9349 5.19189 10.9841 5.18201 11.03 5.16211L12.3249 4.59937L13.4234 5.07751V11.8323C13.4234 12.0049 13.5751 12.1448 13.762 12.1448C13.949 12.1448 14.1005 12.0049 14.1005 11.8323V1.25037H15.1172V15.375Z" fill="#CAA356"/>
</g>
<defs>
<clipPath id="clip0_19_395">
<rect width="17.3333" height="16" fill="white"/>
</clipPath>
</defs>
</svg>
