<svg width="22" height="21" viewBox="0 0 22 21" fill="none" xmlns="http://www.w3.org/2000/svg">
<g clip-path="url(#clip0_21_155)">
<path d="M20.7237 7.94595C21.1507 7.93303 21.5636 7.91753 22 7.90461C21.2891 9.35939 20.5876 10.7961 19.8743 12.2534C19.086 10.8478 18.3048 9.46016 17.5164 8.05189C17.9294 8.03639 18.3212 8.02347 18.7318 8.01055C18.7153 7.9382 18.7036 7.87618 18.6872 7.81675C17.852 4.71081 16.0431 2.60745 13.2629 1.57386C10.2598 0.457576 6.9282 1.3413 4.61958 3.79866C3.43476 5.05706 2.63472 6.5661 2.20537 8.31546C2.19599 8.35163 2.1866 8.38781 2.15845 8.4214C2.16549 8.37231 2.17018 8.32063 2.17956 8.27153C2.8576 4.38781 5.52989 1.26895 9.02568 0.328377C11.7144 -0.392553 14.2482 0.0725633 16.5733 1.71856C18.6309 3.17334 19.9823 5.23794 20.6885 7.81417C20.7002 7.85551 20.7096 7.89427 20.7237 7.94595Z" fill="#18599C"/>
<path d="M0 13.07C0.692119 11.6539 1.39362 10.2173 2.10686 8.75989C2.89517 10.163 3.6741 11.548 4.46475 12.9589C4.05183 12.9744 3.65767 12.9873 3.23302 13.0054C3.34329 13.3749 3.42775 13.7289 3.55444 14.0648C4.73222 17.1992 6.83438 19.1268 9.85624 19.7496C13.4013 20.4808 16.998 18.6126 18.8327 15.1759C19.2644 14.3645 19.5881 13.5067 19.804 12.5971C19.8134 12.5609 19.8251 12.5247 19.8392 12.4886C19.7477 13.1578 19.5881 13.809 19.3699 14.4446C18.2133 17.7754 15.5011 20.2328 12.3009 20.84C8.75824 21.5118 5.23899 20.0131 3.00778 16.8813C2.22182 15.778 1.65405 14.5506 1.29978 13.2043C1.26928 13.0881 1.22704 13.0648 1.12381 13.0674C0.750773 13.0777 0.380079 13.07 0 13.07Z" fill="#18599C"/>
<path d="M9.73188 17.0181C10.058 15.4729 10.3818 13.9303 10.7102 12.3721C9.79522 12.3721 8.89899 12.3721 7.98633 12.3721C8.00275 12.3153 8.01448 12.2713 8.02856 12.23C8.81687 10.0517 9.60284 7.87341 10.3911 5.69512C10.4146 5.63052 10.4334 5.58917 10.5108 5.58917C11.4211 5.59434 12.3314 5.59176 13.2441 5.59176C13.2511 5.59176 13.2582 5.59434 13.284 5.60209C12.7185 7.16282 12.1555 8.72354 11.5853 10.3049C12.3948 10.3049 13.1878 10.3049 14.0089 10.3049C12.5801 12.5633 11.1701 14.7933 9.76003 17.0233C9.7483 17.0207 9.74126 17.0207 9.73188 17.0181Z" fill="#18599C"/>
</g>
<defs>
<clipPath id="clip0_21_155">
<rect width="22" height="21" fill="white"/>
</clipPath>
</defs>
</svg>
