<svg width="15" height="16" viewBox="0 0 15 16" fill="none" xmlns="http://www.w3.org/2000/svg">
<g clip-path="url(#clip0_21_171)">
<path d="M0 9.00096C0.0781702 8.9257 0.147655 8.83539 0.243196 8.78271C1.05096 8.34621 1.85871 7.91724 2.66647 7.48074C2.98784 7.30764 3.18761 7.39043 3.22235 7.72909C3.29184 8.37631 3.31789 9.03106 3.43081 9.67076C3.65663 10.9652 4.54256 11.8232 5.9062 12.3424C6.05385 12.4027 6.21888 12.4403 6.39259 12.493C6.39259 10.175 6.39259 7.87961 6.39259 5.56164C6.33179 5.56164 6.27099 5.56164 6.20151 5.56164C5.79328 5.56164 5.38506 5.56164 4.97684 5.56164C4.6989 5.56164 4.59467 5.47133 4.59467 5.2305C4.59467 4.90689 4.59467 4.58328 4.59467 4.25966C4.59467 4.03389 4.70759 3.94358 4.97684 3.93605C5.44586 3.93605 5.91488 3.93605 6.40996 3.93605C6.40996 3.70275 6.41865 3.4845 6.40127 3.25872C6.40127 3.22109 6.33179 3.17594 6.28836 3.14584C5.56746 2.66418 5.29821 1.85139 5.61957 1.11385C5.93225 0.406419 6.76607 -0.0526593 7.66068 0.00754771C8.47713 0.0602288 9.2154 0.571988 9.44991 1.24932C9.68443 1.94922 9.40649 2.71686 8.7377 3.14584C8.64215 3.20604 8.59873 3.27378 8.59873 3.37914C8.60741 3.55976 8.59873 3.74038 8.59873 3.93605C9.01564 3.93605 9.40649 3.93605 9.80602 3.93605C10.3966 3.93605 10.4227 3.95863 10.4227 4.46286C10.4227 4.71874 10.4227 4.97462 10.4227 5.2305C10.4227 5.47133 10.3098 5.56164 10.0405 5.56164C9.57151 5.56164 9.10249 5.56164 8.62478 5.56164C8.62478 7.87961 8.62478 10.1825 8.62478 12.5306C8.92878 12.4252 9.2154 12.3424 9.48466 12.2296C10.6398 11.7404 11.4302 10.9803 11.6995 9.87396C11.7776 9.5353 11.7776 9.18158 11.7863 8.83539C11.8037 8.4591 11.795 8.08281 11.8037 7.71404C11.8037 7.42805 12.0295 7.32269 12.3075 7.47321C13.1413 7.91724 13.9751 8.36126 14.8089 8.81281C15.0869 8.96333 15.0695 9.18158 14.7829 9.30952C14.4702 9.44499 14.1662 9.58798 13.8448 9.71592C13.7319 9.76107 13.6885 9.82128 13.6885 9.92664C13.7059 10.5287 13.6451 11.1233 13.4192 11.6952C13.0718 12.5682 12.4291 13.2456 11.5605 13.7648C10.8136 14.2164 9.98842 14.4948 9.11118 14.6905C9.02432 14.7131 8.93746 14.7583 8.87667 14.8109C8.52056 15.1421 8.17313 15.4807 7.82571 15.8194C7.75623 15.8871 7.66068 15.9398 7.58251 16C7.5304 16 7.48697 16 7.43486 16C7.35669 15.9398 7.26115 15.8871 7.19166 15.8194C6.83555 15.4883 6.49682 15.1421 6.14071 14.8109C6.07991 14.7507 5.97568 14.7056 5.88883 14.683C5.02027 14.4798 4.18645 14.2013 3.44818 13.7498C2.57093 13.2154 1.93688 12.5306 1.58946 11.6425C1.37232 11.0856 1.32021 10.5137 1.32889 9.93417C1.32889 9.80623 1.29415 9.7385 1.15518 9.68581C0.859873 9.57293 0.573248 9.44499 0.286624 9.30952C0.182397 9.25684 0.0955414 9.15901 0 9.08375C0 9.06117 0 9.03106 0 9.00096ZM6.99189 5.56164C6.99189 5.65195 6.99189 5.71968 6.99189 5.78742C6.99189 7.97744 6.99189 10.175 6.99189 12.365C6.99189 12.5155 6.97452 12.6435 7.2264 12.6585C7.39143 12.6661 7.4696 12.8015 7.43486 12.937C7.40012 13.0725 7.29589 13.1402 7.13955 13.1327C7.03532 13.1251 6.92241 13.1101 6.81818 13.095C5.663 12.9069 4.66416 12.4629 3.88246 11.6877C3.17024 10.9803 2.84019 10.1449 2.78807 9.21921C2.76202 8.85044 2.71859 8.47415 2.67516 8.08281C2.07585 8.40642 1.50261 8.70745 0.911986 9.03106C1.1465 9.13643 1.34627 9.23426 1.5634 9.30952C1.83266 9.39983 1.94557 9.55035 1.91951 9.7987C1.90214 10.032 1.91083 10.2653 1.9282 10.4986C2.00637 11.4845 2.44065 12.3274 3.30052 12.9972C4.01274 13.5541 4.84656 13.9154 5.76723 14.1186C6.18413 14.2089 6.51419 14.3594 6.77475 14.6529C6.99189 14.9012 7.26115 15.127 7.51303 15.3678C7.86045 15.0367 8.18182 14.7131 8.52056 14.4045C8.6161 14.3218 8.74638 14.2465 8.87667 14.2164C9.66705 14.0358 10.4227 13.7949 11.1089 13.4036C12.0035 12.8918 12.6375 12.2145 12.9415 11.3114C13.0805 10.8975 13.1152 10.476 13.1152 10.0471C13.1152 9.35468 13.0371 9.49767 13.7319 9.18911C13.8535 9.13643 13.9751 9.08375 14.1141 9.01601C13.5321 8.70745 12.9763 8.40642 12.3943 8.09786C12.3943 8.16559 12.3856 8.21074 12.3856 8.2559C12.377 8.64725 12.3683 9.03859 12.3596 9.42994C12.3422 10.0847 12.099 10.6792 11.6908 11.2211C10.9091 12.2597 9.75391 12.8091 8.39896 13.0875C8.21656 13.1251 8.06022 13.0273 8.03416 12.8693C8.02548 12.8316 8.03416 12.7865 8.03416 12.7413C8.03416 10.3029 8.03416 7.86456 8.03416 5.42617C8.03416 5.38102 8.03416 5.34339 8.04285 5.29823C8.06891 5.14019 8.16445 5.05741 8.35553 5.04988C8.48581 5.04235 8.60741 5.04988 8.7377 5.04988C9.10249 5.04988 9.46729 5.04988 9.84945 5.04988C9.84945 4.83916 9.84945 4.64348 9.84945 4.44028C9.37174 4.44028 8.90272 4.44028 8.4337 4.44028C8.14708 4.44028 8.05154 4.34997 8.04285 4.10162C8.04285 3.82316 8.05154 3.53718 8.03416 3.25872C8.01679 3.04047 8.11233 2.90501 8.32947 2.78459C8.87667 2.49108 9.09381 1.91159 8.89404 1.3622C8.71164 0.857971 8.11233 0.489203 7.51303 0.504255C6.81818 0.519307 6.21019 0.978385 6.12334 1.5353C6.02779 2.19758 6.43602 2.74696 7.13955 2.93511C7.4088 3.00284 7.51303 3.10068 7.47829 3.2512C7.44354 3.40924 7.31326 3.46945 7.04401 3.44687C7.03532 3.44687 7.03532 3.44687 7.00926 3.4544C7.00926 3.64254 7.00926 3.84574 7.00926 4.04141C7.00926 4.38008 6.93978 4.44781 6.54893 4.44781C6.10597 4.44781 5.663 4.44781 5.21135 4.44781C5.21135 4.65854 5.21135 4.85421 5.21135 5.05741C5.28083 5.05741 5.34163 5.05741 5.40243 5.05741C6.03648 5.05741 6.66184 5.05741 7.29589 5.05741C7.48697 5.05741 7.59988 5.15524 7.60857 5.29823C7.60857 5.44123 7.49566 5.54659 7.31326 5.55411C7.19166 5.56164 7.10481 5.56164 6.99189 5.56164Z" fill="#578672"/>
<path d="M7.50433 2.25779C7.17428 2.25779 6.90503 2.03201 6.90503 1.74603C6.90503 1.46757 7.17428 1.22675 7.49565 1.22675C7.81702 1.22675 8.09495 1.46005 8.09495 1.7385C8.10364 2.02449 7.83439 2.25779 7.50433 2.25779Z" fill="#578672"/>
</g>
<defs>
<clipPath id="clip0_21_171">
<rect width="15" height="16" fill="white"/>
</clipPath>
</defs>
</svg>
