<svg width="16" height="16" viewBox="0 0 16 16" fill="none" xmlns="http://www.w3.org/2000/svg">
<path d="M15.454 11.7695C15.7554 11.7695 16 11.5873 16 11.3627V7.81559C15.9993 7.38169 15.5268 7.0297 14.9444 7.02915H13.7148V4.25763C13.7119 1.90698 11.1552 0.00216949 8 0C4.84484 0.00216949 2.28811 1.90698 2.28519 4.25763V7.02644H1.0556C0.4732 7.02698 0.000728001 7.37898 0 7.81288V14.0171C0.001456 15.1116 1.19246 15.9989 2.66157 16H13.3384C14.8075 15.9989 15.9985 15.1116 16 14.0171C16 13.7925 15.7554 13.6103 15.454 13.6103C15.1526 13.6103 14.908 13.7925 14.908 14.0171C14.9065 14.6625 14.2048 15.1854 13.3384 15.1864H2.66157C1.79525 15.1854 1.09346 14.6625 1.092 14.0171L1.0556 7.84H2.83119C3.13259 7.84 3.37719 7.65776 3.37719 7.43322V4.25763C3.58977 -0.298847 12.4102 -0.29939 12.6228 4.25763V7.02644H6.544C6.24261 7.02644 5.998 7.20868 5.998 7.43322C5.998 7.65776 6.24261 7.84 6.544 7.84C7.93958 7.83458 13.6369 7.81939 14.908 7.81288V11.3627C14.908 11.5873 15.1526 11.7695 15.454 11.7695Z" fill="#D14A37"/>
<path d="M7 11.5C7.02237 12.1667 8.97763 12.1667 9 11.5C8.97763 10.8333 7.02237 10.8333 7 11.5Z" fill="#D14A37"/>
</svg>
