<svg width="16" height="17" viewBox="0 0 16 17" fill="none" xmlns="http://www.w3.org/2000/svg">
<path d="M5.00024 13.25L8.00024 10.8355L11.0002 13.25L9.87524 9.33129L12.8752 7.07504H9.20025L8.00024 2.95837L6.80025 7.07504H3.12524L6.12524 9.33129L5.00024 13.25ZM8.00024 16.4167C6.96274 16.4167 5.98774 16.2089 5.07524 15.7933C4.16274 15.3776 3.36899 14.8136 2.69399 14.1011C2.01899 13.3886 1.48462 12.5507 1.09087 11.5875C0.697119 10.6243 0.500244 9.59518 0.500244 8.50004C0.500244 7.4049 0.697119 6.37574 1.09087 5.41254C1.48462 4.44935 2.01899 3.6115 2.69399 2.899C3.36899 2.1865 4.16274 1.62244 5.07524 1.20681C5.98774 0.791187 6.96274 0.583374 8.00024 0.583374C9.03774 0.583374 10.0127 0.791187 10.9252 1.20681C11.8377 1.62244 12.6315 2.1865 13.3065 2.899C13.9815 3.6115 14.5159 4.44935 14.9096 5.41254C15.3034 6.37574 15.5002 7.4049 15.5002 8.50004C15.5002 9.59518 15.3034 10.6243 14.9096 11.5875C14.5159 12.5507 13.9815 13.3886 13.3065 14.1011C12.6315 14.8136 11.8377 15.3776 10.9252 15.7933C10.0127 16.2089 9.03774 16.4167 8.00024 16.4167Z" fill="#007AFF"/>
</svg>
