<svg width="154" height="66" viewBox="0 0 154 66" fill="none" xmlns="http://www.w3.org/2000/svg">
<g filter="url(#filter0_d_13_1044)">
<rect x="20" width="114" height="26" rx="13" fill="white" shape-rendering="crispEdges"/>
<rect x="25" y="7.62378" width="14.1238" height="12" rx="6" transform="rotate(-0.996574 25 7.62378)" fill="#D14A37"/>
<path d="M32.1656 13.5002C32.3813 13.4964 32.565 13.4279 32.7165 13.2946C32.8677 13.1615 32.9417 13.0033 32.9385 12.82C32.9353 12.6366 32.8559 12.481 32.7001 12.353C32.544 12.2253 32.3582 12.1633 32.1424 12.167C31.9267 12.1708 31.7432 12.2392 31.5919 12.3723C31.4404 12.5056 31.3663 12.6639 31.3695 12.8472C31.3727 13.0306 31.4523 13.1861 31.6083 13.3138C31.7641 13.4418 31.9498 13.5039 32.1656 13.5002ZM32.2236 16.833C31.1577 16.0903 30.3593 15.3971 29.8284 14.7533C29.2971 14.1098 29.0267 13.5103 29.017 12.9548C29.0025 12.1216 29.3065 11.4524 29.9289 10.947C30.5511 10.4417 31.2773 10.1818 32.1076 10.1673C32.9379 10.1529 33.6728 10.3874 34.3121 10.8708C34.9517 11.3542 35.2788 12.0125 35.2933 12.8457C35.303 13.4011 35.0537 14.0097 34.5454 14.6713C34.0369 15.3331 33.2629 16.0537 32.2236 16.833Z" fill="white"/>
<path d="M49.6733 12.842H53.5123V14.052H49.6733V12.842ZM49.7943 17H48.3643V9.3H53.9853V10.499H49.7943V17ZM57.8361 17.077C57.1834 17.077 56.6114 16.9487 56.1201 16.692C55.6361 16.428 55.2584 16.0687 54.9871 15.614C54.7231 15.1593 54.5911 14.6423 54.5911 14.063C54.5911 13.4763 54.7194 12.9593 54.9761 12.512C55.2401 12.0573 55.5994 11.7017 56.0541 11.445C56.5161 11.1883 57.0404 11.06 57.6271 11.06C58.1991 11.06 58.7088 11.1847 59.1561 11.434C59.6034 11.6833 59.9554 12.0353 60.2121 12.49C60.4688 12.9447 60.5971 13.48 60.5971 14.096C60.5971 14.1547 60.5934 14.2207 60.5861 14.294C60.5861 14.3673 60.5824 14.437 60.5751 14.503H55.6801V13.59H59.8491L59.3101 13.876C59.3174 13.5387 59.2478 13.2417 59.1011 12.985C58.9544 12.7283 58.7528 12.5267 58.4961 12.38C58.2468 12.2333 57.9571 12.16 57.6271 12.16C57.2898 12.16 56.9928 12.2333 56.7361 12.38C56.4868 12.5267 56.2888 12.732 56.1421 12.996C56.0028 13.2527 55.9331 13.557 55.9331 13.909V14.129C55.9331 14.481 56.0138 14.7927 56.1751 15.064C56.3364 15.3353 56.5638 15.5443 56.8571 15.691C57.1504 15.8377 57.4878 15.911 57.8691 15.911C58.1991 15.911 58.4961 15.8597 58.7601 15.757C59.0241 15.6543 59.2588 15.493 59.4641 15.273L60.2011 16.12C59.9371 16.428 59.6034 16.6663 59.2001 16.835C58.8041 16.9963 58.3494 17.077 57.8361 17.077ZM63.7329 17.077C63.2415 17.077 62.7685 17.0147 62.3139 16.89C61.8665 16.758 61.5109 16.6003 61.2469 16.417L61.7749 15.372C62.0389 15.5407 62.3542 15.68 62.7209 15.79C63.0875 15.9 63.4542 15.955 63.8209 15.955C64.2535 15.955 64.5652 15.8963 64.7559 15.779C64.9539 15.6617 65.0529 15.504 65.0529 15.306C65.0529 15.1447 64.9869 15.0237 64.8549 14.943C64.7229 14.855 64.5505 14.789 64.3379 14.745C64.1252 14.701 63.8869 14.6607 63.6229 14.624C63.3662 14.5873 63.1059 14.5397 62.8419 14.481C62.5852 14.415 62.3505 14.3233 62.1379 14.206C61.9252 14.0813 61.7529 13.9163 61.6209 13.711C61.4889 13.5057 61.4229 13.2343 61.4229 12.897C61.4229 12.523 61.5292 12.2003 61.7419 11.929C61.9545 11.6503 62.2515 11.4377 62.6329 11.291C63.0215 11.137 63.4799 11.06 64.0079 11.06C64.4039 11.06 64.8035 11.104 65.2069 11.192C65.6102 11.28 65.9439 11.4047 66.2079 11.566L65.6799 12.611C65.4012 12.4423 65.1189 12.3287 64.8329 12.27C64.5542 12.204 64.2755 12.171 63.9969 12.171C63.5789 12.171 63.2672 12.2333 63.0619 12.358C62.8639 12.4827 62.7649 12.6403 62.7649 12.831C62.7649 13.007 62.8309 13.139 62.9629 13.227C63.0949 13.315 63.2672 13.3847 63.4799 13.436C63.6925 13.4873 63.9272 13.5313 64.1839 13.568C64.4479 13.5973 64.7082 13.645 64.9649 13.711C65.2215 13.777 65.4562 13.8687 65.6689 13.986C65.8889 14.096 66.0649 14.2537 66.1969 14.459C66.3289 14.6643 66.3949 14.932 66.3949 15.262C66.3949 15.6287 66.2849 15.9477 66.0649 16.219C65.8522 16.4903 65.5479 16.703 65.1519 16.857C64.7559 17.0037 64.2829 17.077 63.7329 17.077ZM70.322 14.514V13.37H73.347V14.514H70.322ZM78.0235 17V9.3H79.2005L82.5665 14.921H81.9505L85.2615 9.3H86.4385L86.4495 17H85.0965L85.0855 11.423H85.3715L82.5555 16.12H81.9175L79.0575 11.423H79.3875V17H78.0235ZM91.0374 17.077C90.436 17.077 89.9007 16.9487 89.4314 16.692C88.962 16.428 88.5917 16.0687 88.3204 15.614C88.049 15.1593 87.9134 14.6423 87.9134 14.063C87.9134 13.4763 88.049 12.9593 88.3204 12.512C88.5917 12.0573 88.962 11.7017 89.4314 11.445C89.9007 11.1883 90.436 11.06 91.0374 11.06C91.646 11.06 92.185 11.1883 92.6544 11.445C93.131 11.7017 93.5014 12.0537 93.7654 12.501C94.0367 12.9483 94.1724 13.469 94.1724 14.063C94.1724 14.6423 94.0367 15.1593 93.7654 15.614C93.5014 16.0687 93.131 16.428 92.6544 16.692C92.185 16.9487 91.646 17.077 91.0374 17.077ZM91.0374 15.9C91.3747 15.9 91.6754 15.8267 91.9394 15.68C92.2034 15.5333 92.4087 15.3207 92.5554 15.042C92.7094 14.7633 92.7864 14.437 92.7864 14.063C92.7864 13.6817 92.7094 13.3553 92.5554 13.084C92.4087 12.8053 92.2034 12.5927 91.9394 12.446C91.6754 12.2993 91.3784 12.226 91.0484 12.226C90.711 12.226 90.4104 12.2993 90.1464 12.446C89.8897 12.5927 89.6844 12.8053 89.5304 13.084C89.3764 13.3553 89.2994 13.6817 89.2994 14.063C89.2994 14.437 89.3764 14.7633 89.5304 15.042C89.6844 15.3207 89.8897 15.5333 90.1464 15.68C90.4104 15.8267 90.7074 15.9 91.0374 15.9ZM95.4872 17V11.126H96.7962V12.743L96.6422 12.27C96.8182 11.874 97.0932 11.5733 97.4672 11.368C97.8485 11.1627 98.3215 11.06 98.8862 11.06V12.369C98.8275 12.3543 98.7725 12.347 98.7212 12.347C98.6699 12.3397 98.6185 12.336 98.5672 12.336C98.0465 12.336 97.6322 12.49 97.3242 12.798C97.0162 13.0987 96.8622 13.5497 96.8622 14.151V17H95.4872ZM102.639 17.077C102.038 17.077 101.502 16.9487 101.033 16.692C100.564 16.428 100.193 16.0687 99.9219 15.614C99.6506 15.1593 99.5149 14.6423 99.5149 14.063C99.5149 13.4763 99.6506 12.9593 99.9219 12.512C100.193 12.0573 100.564 11.7017 101.033 11.445C101.502 11.1883 102.038 11.06 102.639 11.06C103.248 11.06 103.787 11.1883 104.256 11.445C104.733 11.7017 105.103 12.0537 105.367 12.501C105.638 12.9483 105.774 13.469 105.774 14.063C105.774 14.6423 105.638 15.1593 105.367 15.614C105.103 16.0687 104.733 16.428 104.256 16.692C103.787 16.9487 103.248 17.077 102.639 17.077ZM102.639 15.9C102.976 15.9 103.277 15.8267 103.541 15.68C103.805 15.5333 104.01 15.3207 104.157 15.042C104.311 14.7633 104.388 14.437 104.388 14.063C104.388 13.6817 104.311 13.3553 104.157 13.084C104.01 12.8053 103.805 12.5927 103.541 12.446C103.277 12.2993 102.98 12.226 102.65 12.226C102.313 12.226 102.012 12.2993 101.748 12.446C101.491 12.5927 101.286 12.8053 101.132 13.084C100.978 13.3553 100.901 13.6817 100.901 14.063C100.901 14.437 100.978 14.7633 101.132 15.042C101.286 15.3207 101.491 15.5333 101.748 15.68C102.012 15.8267 102.309 15.9 102.639 15.9ZM109.784 17.077C109.168 17.077 108.618 16.9487 108.134 16.692C107.657 16.428 107.283 16.0687 107.012 15.614C106.74 15.1593 106.605 14.6423 106.605 14.063C106.605 13.4763 106.74 12.9593 107.012 12.512C107.283 12.0573 107.657 11.7017 108.134 11.445C108.618 11.1883 109.168 11.06 109.784 11.06C110.356 11.06 110.858 11.1773 111.291 11.412C111.731 11.6393 112.064 11.9767 112.292 12.424L111.236 13.04C111.06 12.7613 110.843 12.556 110.587 12.424C110.337 12.292 110.066 12.226 109.773 12.226C109.435 12.226 109.131 12.2993 108.86 12.446C108.588 12.5927 108.376 12.8053 108.222 13.084C108.068 13.3553 107.991 13.6817 107.991 14.063C107.991 14.4443 108.068 14.7743 108.222 15.053C108.376 15.3243 108.588 15.5333 108.86 15.68C109.131 15.8267 109.435 15.9 109.773 15.9C110.066 15.9 110.337 15.834 110.587 15.702C110.843 15.57 111.06 15.3647 111.236 15.086L112.292 15.702C112.064 16.142 111.731 16.483 111.291 16.725C110.858 16.9597 110.356 17.077 109.784 17.077ZM116.089 17.077C115.473 17.077 114.923 16.9487 114.439 16.692C113.963 16.428 113.589 16.0687 113.317 15.614C113.046 15.1593 112.91 14.6423 112.91 14.063C112.91 13.4763 113.046 12.9593 113.317 12.512C113.589 12.0573 113.963 11.7017 114.439 11.445C114.923 11.1883 115.473 11.06 116.089 11.06C116.661 11.06 117.164 11.1773 117.596 11.412C118.036 11.6393 118.37 11.9767 118.597 12.424L117.541 13.04C117.365 12.7613 117.149 12.556 116.892 12.424C116.643 12.292 116.372 12.226 116.078 12.226C115.741 12.226 115.437 12.2993 115.165 12.446C114.894 12.5927 114.681 12.8053 114.527 13.084C114.373 13.3553 114.296 13.6817 114.296 14.063C114.296 14.4443 114.373 14.7743 114.527 15.053C114.681 15.3243 114.894 15.5333 115.165 15.68C115.437 15.8267 115.741 15.9 116.078 15.9C116.372 15.9 116.643 15.834 116.892 15.702C117.149 15.57 117.365 15.3647 117.541 15.086L118.597 15.702C118.37 16.142 118.036 16.483 117.596 16.725C117.164 16.9597 116.661 17.077 116.089 17.077ZM122.34 17.077C121.739 17.077 121.203 16.9487 120.734 16.692C120.265 16.428 119.894 16.0687 119.623 15.614C119.352 15.1593 119.216 14.6423 119.216 14.063C119.216 13.4763 119.352 12.9593 119.623 12.512C119.894 12.0573 120.265 11.7017 120.734 11.445C121.203 11.1883 121.739 11.06 122.34 11.06C122.949 11.06 123.488 11.1883 123.957 11.445C124.434 11.7017 124.804 12.0537 125.068 12.501C125.339 12.9483 125.475 13.469 125.475 14.063C125.475 14.6423 125.339 15.1593 125.068 15.614C124.804 16.0687 124.434 16.428 123.957 16.692C123.488 16.9487 122.949 17.077 122.34 17.077ZM122.34 15.9C122.677 15.9 122.978 15.8267 123.242 15.68C123.506 15.5333 123.711 15.3207 123.858 15.042C124.012 14.7633 124.089 14.437 124.089 14.063C124.089 13.6817 124.012 13.3553 123.858 13.084C123.711 12.8053 123.506 12.5927 123.242 12.446C122.978 12.2993 122.681 12.226 122.351 12.226C122.014 12.226 121.713 12.2993 121.449 12.446C121.192 12.5927 120.987 12.8053 120.833 13.084C120.679 13.3553 120.602 13.6817 120.602 14.063C120.602 14.437 120.679 14.7633 120.833 15.042C120.987 15.3207 121.192 15.5333 121.449 15.68C121.713 15.8267 122.01 15.9 122.34 15.9Z" fill="black"/>
</g>
<defs>
<filter id="filter0_d_13_1044" x="0" y="0" width="154" height="66" filterUnits="userSpaceOnUse" color-interpolation-filters="sRGB">
<feFlood flood-opacity="0" result="BackgroundImageFix"/>
<feColorMatrix in="SourceAlpha" type="matrix" values="0 0 0 0 0 0 0 0 0 0 0 0 0 0 0 0 0 0 127 0" result="hardAlpha"/>
<feOffset dy="20"/>
<feGaussianBlur stdDeviation="10"/>
<feComposite in2="hardAlpha" operator="out"/>
<feColorMatrix type="matrix" values="0 0 0 0 0.48 0 0 0 0 0.35 0 0 0 0 1 0 0 0 0.08 0"/>
<feBlend mode="normal" in2="BackgroundImageFix" result="effect1_dropShadow_13_1044"/>
<feBlend mode="normal" in="SourceGraphic" in2="effect1_dropShadow_13_1044" result="shape"/>
</filter>
</defs>
</svg>
